<?xml version="1.0" standalone="no"?>
<!DOCTYPE svg PUBLIC "-//W3C//DTD SVG 20010904//EN"
 "http://www.w3.org/TR/2001/REC-SVG-20010904/DTD/svg10.dtd">
<svg version="1.0" xmlns="http://www.w3.org/2000/svg"
 width="894.000000pt" height="894.000000pt" viewBox="0 0 894.000000 894.000000"
 preserveAspectRatio="xMidYMid meet">
<metadata>
Created by potrace 1.11, written by Peter Selinger 2001-2013
</metadata>
<g transform="translate(0.000000,894.000000) scale(0.100000,-0.100000)"
fill="#000000" stroke="none">
<path d="M4765 8820 c3 -5 11 -10 16 -10 6 0 7 5 4 10 -3 6 -11 10 -16 10 -6
0 -7 -4 -4 -10z"/>
<path d="M4660 8760 c0 -5 5 -10 10 -10 6 0 10 5 10 10 0 6 -4 10 -10 10 -5 0
-10 -4 -10 -10z"/>
<path d="M5080 8730 c-12 -7 -12 -12 -2 -22 9 -9 15 -9 24 0 16 16 -2 34 -22
22z"/>
<path d="M3907 8715 c-8 -18 11 -31 25 -17 11 11 3 32 -12 32 -4 0 -10 -7 -13
-15z"/>
<path d="M4855 8720 c3 -5 13 -10 21 -10 8 0 14 5 14 10 0 6 -9 10 -21 10 -11
0 -17 -4 -14 -10z"/>
<path d="M4753 8653 c-15 -5 -17 -39 -4 -48 5 -3 17 2 26 11 12 12 13 19 4 30
-6 8 -12 14 -13 13 0 0 -7 -3 -13 -6z"/>
<path d="M5900 8646 c0 -9 5 -16 10 -16 6 0 10 4 10 9 0 6 -4 13 -10 16 -5 3
-10 -1 -10 -9z"/>
<path d="M4260 8635 c0 -9 6 -12 15 -9 8 4 12 10 9 15 -8 14 -24 10 -24 -6z"/>
<path d="M4503 8644 c-17 -7 -4 -34 16 -34 25 0 33 11 20 27 -12 14 -16 15
-36 7z"/>
<path d="M4935 8601 c-9 -16 3 -31 26 -31 14 0 19 6 17 17 -4 20 -33 29 -43
14z"/>
<path d="M3804 8587 c-7 -20 3 -37 21 -37 23 0 26 16 5 35 -18 16 -20 16 -26
2z"/>
<path d="M5520 8581 c0 -5 5 -13 10 -16 6 -3 10 -2 10 4 0 5 -4 13 -10 16 -5
3 -10 2 -10 -4z"/>
<path d="M4003 8573 c-18 -6 -16 -43 1 -43 22 0 39 26 24 37 -7 6 -19 8 -25 6z"/>
<path d="M3650 8555 c0 -8 5 -15 10 -15 6 0 10 7 10 15 0 8 -4 15 -10 15 -5 0
-10 -7 -10 -15z"/>
<path d="M5620 8561 c0 -17 25 -30 40 -20 13 8 13 10 0 19 -19 12 -40 13 -40
1z"/>
<path d="M3525 8550 c-8 -14 3 -30 21 -30 8 0 14 9 14 20 0 21 -24 28 -35 10z"/>
<path d="M5250 8535 c-9 -11 -7 -16 8 -24 20 -11 32 -6 32 15 0 18 -27 25 -40
9z"/>
<path d="M5740 8525 c0 -10 7 -15 18 -13 21 4 19 22 -2 26 -10 2 -16 -3 -16
-13z"/>
<path d="M4202 8518 c-17 -17 -15 -48 3 -48 17 0 39 36 30 50 -8 13 -18 13
-33 -2z"/>
<path d="M4299 8504 c-15 -18 0 -38 27 -32 25 5 28 25 6 37 -15 8 -23 7 -33
-5z"/>
<path d="M4841 8502 c-16 -31 16 -53 48 -33 10 7 11 13 2 30 -14 26 -37 27
-50 3z"/>
<path d="M5377 8506 c-5 -13 19 -43 31 -39 13 4 20 29 10 40 -14 17 -35 16
-41 -1z"/>
<path d="M5524 8508 c-8 -13 25 -40 38 -32 5 3 8 13 6 21 -4 19 -35 26 -44 11z"/>
<path d="M3307 8493 c-4 -3 -7 -15 -7 -26 0 -13 5 -17 16 -13 9 3 17 6 19 6 2
0 1 9 -2 20 -5 21 -15 25 -26 13z"/>
<path d="M4766 8493 c-11 -11 -6 -23 9 -23 8 0 15 4 15 9 0 13 -16 22 -24 14z"/>
<path d="M3897 8484 c-10 -10 -9 -42 2 -48 18 -11 42 6 39 28 -3 21 -28 33
-41 20z"/>
<path d="M4033 8474 c-3 -8 1 -23 10 -31 13 -13 19 -14 31 -3 20 16 20 36 0
44 -25 9 -34 7 -41 -10z"/>
<path d="M4453 8483 c-7 -2 -13 -13 -13 -23 0 -22 19 -30 43 -18 21 11 22 34
1 42 -9 3 -16 6 -17 5 -1 0 -8 -3 -14 -6z"/>
<path d="M4590 8486 c0 -2 7 -9 15 -16 12 -10 15 -10 15 4 0 9 -7 16 -15 16
-8 0 -15 -2 -15 -4z"/>
<path d="M3774 8466 c-3 -9 -4 -23 0 -31 4 -13 9 -13 25 -4 10 7 18 20 16 28
-3 22 -34 26 -41 7z"/>
<path d="M5142 8468 c-30 -30 1 -74 33 -48 20 16 19 46 -1 54 -20 8 -18 8 -32
-6z"/>
<path d="M5703 8473 c-18 -7 -16 -33 2 -33 8 0 15 9 15 20 0 11 -1 20 -2 19
-2 0 -9 -3 -15 -6z"/>
<path d="M2985 8451 c-3 -5 -1 -12 5 -16 12 -7 30 2 30 16 0 12 -27 12 -35 0z"/>
<path d="M3397 8443 c-3 -5 -2 -15 2 -22 10 -16 54 -5 48 12 -4 14 -43 22 -50
10z"/>
<path d="M4977 8432 c-21 -23 -7 -45 24 -40 26 3 32 25 12 46 -15 16 -17 15
-36 -6z"/>
<path d="M3634 8425 c-7 -18 2 -45 15 -45 14 0 33 38 26 50 -9 15 -35 12 -41
-5z"/>
<path d="M5256 8423 c-8 -21 17 -48 38 -40 21 8 21 43 0 51 -24 9 -31 7 -38
-11z"/>
<path d="M5806 8411 c-17 -18 -16 -20 3 -26 26 -8 41 1 41 26 0 24 -22 25 -44
0z"/>
<path d="M6060 8420 c0 -6 7 -10 15 -10 8 0 15 2 15 4 0 2 -7 6 -15 10 -8 3
-15 1 -15 -4z"/>
<path d="M6176 8385 c4 -9 11 -14 16 -13 15 5 11 23 -6 26 -11 2 -14 -2 -10
-13z"/>
<path d="M5382 8378 c-15 -15 3 -48 27 -48 26 0 33 25 12 44 -21 19 -24 19
-39 4z"/>
<path d="M3507 8373 c-4 -3 -7 -15 -7 -25 0 -13 7 -18 25 -18 27 0 33 18 13
38 -14 14 -22 15 -31 5z"/>
<path d="M3970 8367 c-19 -15 -20 -55 -1 -66 20 -13 51 9 51 36 0 28 -30 46
-50 30z"/>
<path d="M4631 8366 c-15 -17 14 -50 36 -42 8 3 18 6 23 6 13 0 5 31 -11 41
-20 13 -35 11 -48 -5z"/>
<path d="M4518 8353 c-22 -5 -31 -32 -17 -50 17 -20 53 -12 57 13 3 24 -16 42
-40 37z"/>
<path d="M4770 8340 c-12 -23 -6 -40 15 -40 17 0 34 30 28 48 -7 19 -31 14
-43 -8z"/>
<path d="M2913 8339 c-14 -14 -6 -39 12 -39 15 0 28 27 19 41 -7 12 -18 11
-31 -2z"/>
<path d="M4104 8326 c-7 -31 1 -46 26 -46 23 0 42 32 34 54 -10 26 -53 20 -60
-8z"/>
<path d="M4251 8331 c-8 -15 -7 -23 5 -35 21 -22 56 -3 52 27 -4 30 -43 35
-57 8z"/>
<path d="M4367 8344 c-4 -4 -7 -17 -7 -30 0 -27 32 -37 57 -19 14 11 16 18 7
32 -12 19 -45 29 -57 17z"/>
<path d="M5501 8337 c-14 -18 21 -52 44 -44 19 8 19 21 -1 41 -19 20 -28 20
-43 3z"/>
<path d="M5948 8338 c-7 -17 1 -38 14 -38 15 0 35 24 30 38 -5 16 -39 16 -44
0z"/>
<path d="M3067 8333 c-22 -21 2 -56 31 -46 17 7 15 40 -4 47 -19 7 -19 7 -27
-1z"/>
<path d="M3350 8321 c0 -6 5 -13 10 -16 6 -3 10 1 10 9 0 9 -4 16 -10 16 -5 0
-10 -4 -10 -9z"/>
<path d="M4909 8313 c-15 -17 -2 -50 22 -56 13 -3 28 2 41 15 18 18 19 21 3
38 -19 21 -51 22 -66 3z"/>
<path d="M5037 8310 c-9 -12 -13 -29 -10 -36 7 -19 37 -18 53 2 11 13 10 18
-7 36 l-21 20 -15 -22z"/>
<path d="M5663 8309 c-13 -13 -5 -49 12 -49 19 0 38 28 31 45 -6 18 -27 20
-43 4z"/>
<path d="M3698 8292 c-3 -10 2 -24 9 -31 12 -11 17 -11 29 1 8 8 12 22 8 31
-8 22 -40 22 -46 -1z"/>
<path d="M3825 8291 c-14 -46 34 -69 59 -28 9 15 7 21 -8 33 -27 19 -43 18
-51 -5z"/>
<path d="M3210 8275 c0 -8 4 -15 9 -15 5 0 11 7 15 15 3 9 0 15 -9 15 -8 0
-15 -7 -15 -15z"/>
<path d="M3550 8269 c-13 -23 1 -49 26 -49 24 0 36 37 18 54 -21 21 -31 20
-44 -5z"/>
<path d="M5136 8268 c-4 -15 0 -27 11 -35 40 -30 74 -3 47 36 -20 28 -50 27
-58 -1z"/>
<path d="M6074 8275 c-7 -18 3 -35 21 -35 15 0 28 27 19 41 -8 14 -34 11 -40
-6z"/>
<path d="M6447 8273 c-12 -11 13 -31 34 -26 15 4 17 8 8 19 -12 15 -31 18 -42
7z"/>
<path d="M5300 8251 c-17 -33 -12 -51 15 -51 29 0 47 28 34 53 -13 23 -36 22
-49 -2z"/>
<path d="M5440 8245 c-18 -19 -20 -27 -11 -38 11 -15 61 -12 61 3 0 5 3 15 6
23 3 9 -2 20 -14 26 -15 8 -24 5 -42 -14z"/>
<path d="M5788 8262 c-22 -4 -24 -48 -3 -56 19 -7 45 3 45 18 -1 20 -25 42
-42 38z"/>
<path d="M3422 8228 c2 -15 10 -23 23 -23 13 0 21 8 23 23 3 18 -1 22 -23 22
-22 0 -26 -4 -23 -22z"/>
<path d="M2742 8223 c5 -25 28 -28 28 -4 0 12 -6 21 -16 21 -9 0 -14 -7 -12
-17z"/>
<path d="M4339 8233 c-26 -6 -30 -42 -8 -64 19 -19 20 -19 40 0 33 31 11 73
-32 64z"/>
<path d="M4462 8228 c-17 -17 -15 -55 4 -62 42 -16 74 43 35 64 -24 13 -24 13
-39 -2z"/>
<path d="M4580 8225 c-19 -23 -8 -50 22 -53 19 -2 28 2 33 18 12 39 -29 66
-55 35z"/>
<path d="M4212 8205 c-9 -19 -8 -27 4 -40 19 -19 24 -19 51 0 12 8 20 23 18
32 -2 10 -4 21 -4 26 -1 4 -14 7 -29 7 -21 0 -32 -7 -40 -25z"/>
<path d="M4848 8208 c-44 -35 -21 -88 29 -65 27 12 30 39 7 61 -19 19 -16 19
-36 4z"/>
<path d="M5923 8204 c-14 -37 38 -69 57 -34 7 13 5 22 -9 34 -23 20 -40 20
-48 0z"/>
<path d="M3315 8193 c-4 -12 1 -24 16 -36 19 -16 24 -16 37 -4 21 21 6 57 -23
57 -12 0 -26 -8 -30 -17z"/>
<path d="M3921 8188 c-13 -33 18 -63 53 -54 29 7 33 30 12 59 -19 24 -55 22
-65 -5z"/>
<path d="M4072 8198 c-28 -28 -3 -72 35 -62 25 7 36 29 28 55 -7 22 -45 25
-63 7z"/>
<path d="M4696 8195 c-7 -20 3 -44 25 -55 25 -14 53 24 38 52 -12 22 -55 24
-63 3z"/>
<path d="M6196 8202 c-12 -20 31 -46 54 -32 11 7 11 11 1 24 -14 17 -46 21
-55 8z"/>
<path d="M2964 8189 c-3 -6 0 -18 8 -26 13 -13 17 -12 32 2 9 9 16 21 16 26 0
13 -47 11 -56 -2z"/>
<path d="M5548 8188 c-24 -19 -6 -58 25 -58 34 0 51 23 37 49 -12 24 -38 27
-62 9z"/>
<path d="M4960 8164 c-14 -36 4 -58 39 -49 34 9 42 23 28 52 -15 33 -54 31
-67 -3z"/>
<path d="M5086 8177 c-27 -19 -17 -59 17 -71 21 -8 31 -6 43 6 15 15 14 19
-13 47 -26 26 -32 29 -47 18z"/>
<path d="M5666 8168 c-14 -20 -14 -24 0 -40 12 -13 21 -15 34 -8 26 14 31 37
14 55 -21 20 -30 19 -48 -7z"/>
<path d="M3807 8173 c-14 -13 -6 -53 12 -62 36 -20 70 36 36 61 -13 10 -40 10
-48 1z"/>
<path d="M2814 8155 c-4 -9 -2 -21 4 -27 15 -15 44 -1 40 19 -4 23 -36 29 -44
8z"/>
<path d="M5215 8147 c-19 -27 -19 -41 0 -57 35 -29 90 19 61 53 -20 26 -45 27
-61 4z"/>
<path d="M6701 8156 c-9 -10 -9 -16 -1 -21 17 -10 37 12 24 25 -8 8 -15 6 -23
-4z"/>
<path d="M3687 8145 c-34 -25 -11 -69 30 -59 26 7 36 30 24 52 -11 20 -32 23
-54 7z"/>
<path d="M6051 8151 c-22 -14 -4 -51 25 -51 29 0 42 24 24 45 -14 17 -29 19
-49 6z"/>
<path d="M3171 8131 c-10 -7 -11 -13 -2 -30 15 -26 23 -26 47 0 16 17 16 22 4
29 -19 12 -31 12 -49 1z"/>
<path d="M5367 8101 c-28 -48 19 -84 56 -43 15 16 14 61 -2 63 -3 0 -13 2 -22
4 -9 1 -23 -9 -32 -24z"/>
<path d="M6205 8110 c-8 -25 1 -40 25 -40 20 0 32 22 24 45 -9 22 -42 18 -49
-5z"/>
<path d="M2690 8110 c-13 -8 -13 -11 2 -26 14 -14 20 -15 32 -4 35 28 5 55
-34 30z"/>
<path d="M3082 8103 c4 -20 18 -26 37 -14 18 12 5 31 -20 31 -14 0 -19 -6 -17
-17z"/>
<path d="M3552 8108 c-16 -16 -15 -33 3 -48 20 -17 65 5 65 31 0 27 -46 39
-68 17z"/>
<path d="M5782 8098 c-19 -19 -14 -38 11 -47 15 -6 26 -5 36 5 13 12 12 16 -4
34 -21 23 -27 24 -43 8z"/>
<path d="M5928 8092 c-19 -23 -17 -52 5 -66 14 -9 21 -7 32 7 7 10 12 26 10
35 -2 9 -4 20 -4 23 -2 16 -30 16 -43 1z"/>
<path d="M5494 8078 c-24 -27 -21 -55 9 -64 15 -5 26 0 39 16 22 27 20 38 -8
57 -18 11 -23 10 -40 -9z"/>
<path d="M6470 8081 c0 -15 6 -21 21 -21 14 0 19 5 17 17 -5 26 -38 29 -38 4z"/>
<path d="M3430 8070 c-16 -30 -3 -60 25 -60 31 0 50 32 35 60 -14 26 -46 26
-60 0z"/>
<path d="M2970 8070 c-18 -11 -21 -57 -4 -64 30 -12 60 18 48 48 -7 19 -27 26
-44 16z"/>
<path d="M6970 8060 c0 -5 5 -10 10 -10 6 0 10 5 10 10 0 6 -4 10 -10 10 -5 0
-10 -4 -10 -10z"/>
<path d="M2363 8052 c-18 -11 1 -36 22 -28 9 3 15 11 13 18 -5 15 -20 20 -35
10z"/>
<path d="M3333 8049 c-15 -15 -4 -56 17 -62 11 -3 26 3 34 12 14 15 14 19 0
39 -17 24 -34 28 -51 11z"/>
<path d="M5593 8031 c-30 -45 18 -81 55 -40 17 17 19 26 10 44 -14 30 -44 28
-65 -4z"/>
<path d="M6291 8047 c-17 -17 -13 -35 10 -42 13 -4 25 -2 29 6 17 26 -17 58
-39 36z"/>
<path d="M6030 8035 c-13 -15 -4 -59 10 -50 5 3 12 1 15 -5 9 -15 35 7 35 29
0 36 -38 53 -60 26z"/>
<path d="M6601 8011 c-9 -16 -8 -22 7 -30 23 -12 45 1 40 25 -5 26 -34 29 -47
5z"/>
<path d="M2585 8009 c-4 -6 -1 -15 6 -20 21 -13 31 -11 27 8 -4 20 -24 28 -33
12z"/>
<path d="M2794 8005 c-9 -23 4 -47 23 -43 26 5 28 35 3 48 -16 9 -21 8 -26 -5z"/>
<path d="M3218 8009 c-37 -21 -9 -77 32 -64 22 7 27 44 8 63 -14 14 -18 14
-40 1z"/>
<path d="M6800 8005 c0 -8 9 -15 20 -15 13 0 18 5 14 15 -4 8 -12 15 -20 15
-8 0 -14 -7 -14 -15z"/>
<path d="M5734 7974 c-7 -29 2 -43 34 -49 28 -5 43 21 29 52 -15 33 -55 31
-63 -3z"/>
<path d="M2214 7982 c-13 -10 -11 -35 3 -39 17 -6 37 34 19 40 -7 3 -17 2 -22
-1z"/>
<path d="M3108 7979 c-38 -22 -6 -89 33 -69 21 12 25 50 7 68 -14 14 -18 14
-40 1z"/>
<path d="M6940 7971 c0 -12 6 -21 16 -21 9 0 14 7 12 17 -5 25 -28 28 -28 4z"/>
<path d="M2713 7955 c-25 -18 -21 -41 8 -50 38 -12 70 45 33 59 -20 8 -16 8
-41 -9z"/>
<path d="M6410 7960 c0 -5 7 -10 16 -10 8 0 12 5 9 10 -3 6 -10 10 -16 10 -5
0 -9 -4 -9 -10z"/>
<path d="M2457 7953 c-15 -14 -7 -43 12 -43 27 0 34 15 15 34 -18 18 -18 18
-27 9z"/>
<path d="M5861 7941 c-7 -13 -6 -23 2 -36 26 -34 89 -1 74 39 -9 23 -63 21
-76 -3z"/>
<path d="M2972 7934 c-25 -17 -30 -62 -7 -70 18 -7 65 21 65 40 0 7 -8 20 -18
29 -16 15 -20 15 -40 1z"/>
<path d="M6163 7942 c-11 -7 -17 -26 -14 -48 1 -16 32 -23 59 -13 27 10 28 23
2 49 -22 22 -29 24 -47 12z"/>
<path d="M6811 7927 c-5 -7 -6 -18 -2 -25 9 -15 41 -5 41 13 0 18 -27 26 -39
12z"/>
<path d="M6284 7909 c-24 -27 -8 -54 32 -54 23 0 30 5 32 23 4 25 -13 52 -33
52 -6 0 -20 -9 -31 -21z"/>
<path d="M7070 7915 c-10 -12 -10 -15 4 -15 9 0 16 7 16 15 0 8 -2 15 -4 15
-2 0 -9 -7 -16 -15z"/>
<path d="M2130 7906 c0 -21 20 -30 33 -17 9 9 8 14 -3 21 -21 14 -30 12 -30
-4z"/>
<path d="M5960 7901 c-14 -28 18 -66 48 -57 22 7 28 30 16 60 -9 22 -51 20
-64 -3z"/>
<path d="M2306 7902 c-2 -4 -1 -14 4 -22 7 -11 11 -11 24 -1 9 7 13 17 10 22
-7 11 -31 12 -38 1z"/>
<path d="M2834 7886 c-21 -23 -22 -42 -3 -54 27 -17 61 2 57 30 -4 25 -38 40
-54 24z"/>
<path d="M2591 7871 c-8 -14 -7 -22 4 -31 15 -12 55 -5 55 10 0 5 3 15 6 24 9
25 -52 22 -65 -3z"/>
<path d="M6553 7854 c-7 -18 14 -35 33 -27 10 4 11 10 3 24 -12 23 -28 24 -36
3z"/>
<path d="M6086 7844 c-21 -21 -20 -41 3 -54 28 -15 39 -13 51 10 24 46 -18 80
-54 44z"/>
<path d="M6667 7854 c-3 -3 -3 -12 0 -20 4 -11 9 -12 19 -3 8 6 11 15 8 20 -6
10 -18 12 -27 3z"/>
<path d="M2033 7833 c-18 -6 -16 -43 1 -43 22 0 39 26 24 37 -7 6 -19 8 -25 6z"/>
<path d="M2421 7826 c-7 -9 -7 -18 2 -30 15 -21 47 -12 47 14 0 21 -35 33 -49
16z"/>
<path d="M6416 7824 c-8 -21 11 -44 35 -44 24 0 32 16 19 40 -13 24 -45 26
-54 4z"/>
<path d="M2712 7818 c-20 -20 -14 -47 13 -54 30 -7 54 10 50 34 -2 9 -4 20 -4
25 -1 12 -46 8 -59 -5z"/>
<path d="M2234 7805 c-15 -11 -16 -15 -5 -29 15 -18 51 -5 51 18 0 20 -25 27
-46 11z"/>
<path d="M6176 7788 c-26 -36 16 -86 49 -58 28 23 13 80 -21 80 -7 0 -20 -10
-28 -22z"/>
<path d="M6944 7795 c-7 -18 3 -35 21 -35 21 0 28 19 15 35 -16 19 -29 19 -36
0z"/>
<path d="M6531 7761 c-20 -13 -6 -60 16 -56 10 2 21 4 24 4 11 2 19 30 13 46
-7 17 -32 19 -53 6z"/>
<path d="M2359 7744 c-14 -17 -5 -42 17 -51 17 -6 34 12 34 38 0 22 -36 31
-51 13z"/>
<path d="M2605 7731 c-13 -42 21 -67 50 -37 12 11 11 17 -1 35 -19 26 -41 27
-49 2z"/>
<path d="M6787 7743 c-12 -12 -7 -31 10 -37 20 -8 36 14 21 31 -12 14 -21 16
-31 6z"/>
<path d="M2106 7727 c-15 -11 -15 -14 0 -35 12 -18 19 -21 30 -11 30 25 2 69
-30 46z"/>
<path d="M6302 7709 c-7 -10 -12 -26 -12 -34 0 -18 43 -37 65 -29 19 8 31 52
17 66 -19 19 -58 17 -70 -3z"/>
<path d="M2243 7703 c-19 -7 -16 -53 3 -60 37 -14 64 38 31 59 -13 9 -17 9
-34 1z"/>
<path d="M6617 7695 c-19 -19 -12 -42 15 -51 25 -8 39 12 29 40 -10 27 -25 30
-44 11z"/>
<path d="M1645 7690 c-3 -5 -2 -10 4 -10 5 0 13 5 16 10 3 6 2 10 -4 10 -5 0
-13 -4 -16 -10z"/>
<path d="M2495 7684 c-9 -9 -14 -23 -11 -31 3 -8 6 -17 6 -19 0 -2 11 -4 25
-4 33 0 51 33 29 54 -20 20 -29 20 -49 0z"/>
<path d="M7048 7678 c9 -9 15 -9 24 0 9 9 7 12 -12 12 -19 0 -21 -3 -12 -12z"/>
<path d="M1985 7654 c-12 -12 -13 -19 -4 -30 15 -18 24 -18 44 2 12 12 13 19
4 30 -15 18 -24 18 -44 -2z"/>
<path d="M6432 7654 c-30 -21 -28 -52 3 -64 30 -11 51 -5 57 18 11 42 -26 70
-60 46z"/>
<path d="M6905 7644 c-18 -18 -12 -28 23 -39 17 -5 22 -2 22 13 0 32 -25 46
-45 26z"/>
<path d="M7110 7622 c0 -22 22 -34 45 -25 25 9 13 38 -18 41 -21 3 -27 -1 -27
-16z"/>
<path d="M2387 7611 c-3 -12 3 -27 13 -36 16 -15 19 -15 34 0 20 21 21 41 0
49 -27 11 -42 7 -47 -13z"/>
<path d="M2131 7596 c-9 -11 -10 -20 -1 -35 12 -23 12 -23 34 -15 30 11 14 64
-19 64 -1 0 -8 -6 -14 -14z"/>
<path d="M6522 7594 c-12 -8 -22 -21 -22 -29 0 -18 39 -45 56 -38 17 6 27 38
19 63 -8 24 -23 25 -53 4z"/>
<path d="M6730 7589 c-13 -24 -1 -44 31 -52 14 -4 23 1 28 16 18 47 -36 80
-59 36z"/>
<path d="M7392 7596 c1 -10 8 -17 13 -17 15 1 12 24 -3 29 -9 3 -13 -2 -10
-12z"/>
<path d="M1860 7590 c-12 -7 -12 -12 -3 -21 9 -9 16 -9 28 1 29 24 9 42 -25
20z"/>
<path d="M2277 7568 c-21 -11 -22 -32 -1 -52 20 -21 40 -20 48 0 15 38 -15 70
-47 52z"/>
<path d="M6995 7554 c-16 -11 -17 -18 -8 -32 20 -32 80 -5 62 29 -12 23 -27
24 -54 3z"/>
<path d="M1495 7550 c-3 -5 -2 -10 4 -10 5 0 13 5 16 10 3 6 2 10 -4 10 -5 0
-13 -4 -16 -10z"/>
<path d="M2016 7537 c-16 -12 -16 -14 4 -32 25 -22 46 -8 35 24 -7 24 -15 26
-39 8z"/>
<path d="M6640 7510 c-23 -23 -22 -38 3 -54 12 -8 22 -8 35 0 25 16 27 51 3
64 -17 8 -24 7 -41 -10z"/>
<path d="M6843 7523 c-22 -8 -15 -53 10 -62 28 -11 37 -6 37 24 0 25 -26 46
-47 38z"/>
<path d="M7220 7522 c0 -24 14 -42 32 -42 29 0 20 44 -9 48 -13 2 -23 -1 -23
-6z"/>
<path d="M7135 7500 c-8 -13 14 -42 26 -34 5 3 9 14 9 25 0 20 -24 26 -35 9z"/>
<path d="M1754 7486 c-8 -21 2 -35 24 -32 9 2 17 11 17 22 0 23 -33 31 -41 10z"/>
<path d="M2162 7488 c-24 -24 -10 -59 26 -64 15 -3 35 32 27 46 -12 20 -42 29
-53 18z"/>
<path d="M1942 7471 c-21 -13 -23 -50 -2 -61 19 -10 31 -1 43 32 7 20 -22 41
-41 29z"/>
<path d="M7370 7451 c-7 -14 -6 -22 5 -31 18 -15 35 -5 35 20 0 25 -28 33 -40
11z"/>
<path d="M6753 7444 c-18 -8 -16 -63 1 -70 27 -10 57 15 54 44 -3 27 -27 38
-55 26z"/>
<path d="M6936 7435 c-18 -18 -11 -41 15 -56 14 -7 23 -5 39 11 25 25 25 36 1
50 -27 14 -37 13 -55 -5z"/>
<path d="M1534 7429 c-3 -6 -1 -16 5 -22 9 -9 14 -8 21 3 9 15 4 30 -10 30 -5
0 -12 -5 -16 -11z"/>
<path d="M2051 7407 c-17 -17 -13 -34 10 -51 29 -20 51 -10 47 22 -3 28 -39
47 -57 29z"/>
<path d="M7185 7394 c-11 -12 -12 -20 -5 -35 18 -33 63 -16 53 21 -7 26 -29
32 -48 14z"/>
<path d="M1677 7383 c-12 -12 -7 -32 6 -27 8 3 14 11 14 19 0 16 -9 19 -20 8z"/>
<path d="M1804 7344 c-4 -17 -1 -31 9 -41 13 -14 17 -13 32 11 14 21 15 29 5
41 -19 23 -39 18 -46 -11z"/>
<path d="M6847 7342 c-22 -24 -21 -27 4 -51 17 -15 26 -18 40 -10 24 12 26 64
3 73 -24 9 -29 8 -47 -12z"/>
<path d="M7065 7327 c-13 -19 -13 -23 -1 -36 13 -12 18 -12 40 2 28 19 26 42
-5 50 -12 3 -24 -2 -34 -16z"/>
<path d="M1957 7299 c-6 -21 10 -49 27 -49 21 0 38 27 32 48 -8 23 -53 25 -59
1z"/>
<path d="M6931 7289 c-24 -23 -24 -24 -11 -50 16 -28 56 -25 64 5 13 51 -18
77 -53 45z"/>
<path d="M7308 7279 c-9 -5 -15 -16 -12 -23 14 -36 77 -23 67 14 -6 22 -28 25
-55 9z"/>
<path d="M1223 7273 c-18 -6 -16 -23 1 -23 17 0 30 16 19 23 -5 2 -14 2 -20 0z"/>
<path d="M7155 7259 c-4 -12 -3 -25 2 -30 13 -13 58 24 49 39 -12 19 -44 14
-51 -9z"/>
<path d="M1372 7238 c-14 -14 -16 -35 -3 -43 14 -8 35 35 24 46 -5 5 -14 4
-21 -3z"/>
<path d="M1711 7237 c-8 -11 -7 -18 7 -30 15 -14 21 -15 36 -4 17 13 17 14 1
30 -20 21 -29 21 -44 4z"/>
<path d="M1866 7238 c-8 -25 -2 -45 15 -56 25 -16 53 22 38 50 -11 20 -48 24
-53 6z"/>
<path d="M7855 7240 c3 -5 8 -10 11 -10 2 0 4 5 4 10 0 6 -5 10 -11 10 -5 0
-7 -4 -4 -10z"/>
<path d="M1485 7229 c-4 -6 -5 -13 -2 -16 7 -7 27 6 27 18 0 12 -17 12 -25 -2z"/>
<path d="M7720 7220 c0 -5 5 -10 11 -10 5 0 7 5 4 10 -3 6 -8 10 -11 10 -2 0
-4 -4 -4 -10z"/>
<path d="M7546 7203 c-8 -20 1 -33 25 -33 15 0 20 6 17 22 -4 25 -34 33 -42
11z"/>
<path d="M7391 7191 c-9 -15 -7 -23 5 -36 23 -22 39 -14 39 21 0 35 -28 45
-44 15z"/>
<path d="M7046 7174 c-21 -21 -20 -41 3 -54 30 -15 40 -12 53 16 11 22 10 28
-7 40 -24 18 -30 18 -49 -2z"/>
<path d="M7241 7171 c-10 -17 -7 -23 14 -37 25 -16 27 -16 43 0 13 13 14 20 6
34 -16 25 -51 27 -63 3z"/>
<path d="M1635 7156 c-22 -16 -14 -46 12 -46 10 0 24 9 30 20 11 16 10 21 -6
29 -13 7 -24 6 -36 -3z"/>
<path d="M1788 7148 c-17 -27 -13 -54 9 -63 37 -14 60 49 27 71 -19 13 -23 12
-36 -8z"/>
<path d="M7672 7116 c1 -10 8 -17 13 -17 15 1 12 24 -3 29 -9 3 -13 -2 -10
-12z"/>
<path d="M7525 7104 c-19 -19 -4 -44 27 -44 24 0 34 26 18 45 -16 19 -25 19
-45 -1z"/>
<path d="M7124 7079 c-19 -21 -18 -21 5 -40 40 -33 80 -16 72 31 -4 20 -4 20
-33 25 -17 3 -31 -2 -44 -16z"/>
<path d="M1373 7082 c-18 -11 1 -36 22 -28 9 3 15 11 13 18 -5 15 -20 20 -35
10z"/>
<path d="M7340 7071 c-12 -23 12 -54 35 -45 20 8 19 50 -1 58 -22 8 -22 8 -34
-13z"/>
<path d="M1521 7066 c-8 -10 -8 -16 3 -25 18 -15 46 -3 46 20 0 22 -32 26 -49
5z"/>
<path d="M1685 7050 c-9 -15 4 -47 22 -54 21 -9 43 12 43 40 0 20 -5 24 -29
24 -17 0 -33 -5 -36 -10z"/>
<path d="M7717 7017 c-7 -20 18 -43 28 -27 4 7 1 19 -7 27 -14 13 -16 13 -21
0z"/>
<path d="M7216 7007 c-25 -18 -13 -53 20 -61 45 -12 70 26 38 58 -19 19 -35
20 -58 3z"/>
<path d="M7593 6984 c-6 -16 11 -34 33 -34 14 0 26 28 18 41 -9 15 -44 10 -51
-7z"/>
<path d="M7892 6984 c1 -9 9 -19 16 -22 9 -3 13 2 10 14 -1 9 -9 19 -16 22 -9
3 -13 -2 -10 -14z"/>
<path d="M1277 6983 c-13 -12 -7 -31 10 -37 16 -7 43 16 43 36 0 10 -44 11
-53 1z"/>
<path d="M1438 6955 c-11 -24 -10 -29 7 -41 16 -12 20 -11 32 6 18 25 13 54
-10 58 -10 2 -21 -6 -29 -23z"/>
<path d="M1624 6962 c-17 -12 -23 -39 -11 -51 17 -17 35 -13 47 8 18 35 -6 64
-36 43z"/>
<path d="M7435 6956 c-22 -16 -12 -56 14 -56 20 0 41 19 41 37 0 21 -35 34
-55 19z"/>
<path d="M7308 6899 c-23 -13 -23 -24 2 -49 25 -25 35 -25 60 0 38 38 -13 78
-62 49z"/>
<path d="M1354 6885 c-15 -11 -17 -18 -8 -32 15 -24 45 -23 54 3 11 29 -20 49
-46 29z"/>
<path d="M1057 6883 c-14 -13 -6 -33 13 -33 13 0 20 7 20 20 0 19 -20 27 -33
13z"/>
<path d="M1176 6882 c-9 -14 12 -35 28 -29 23 9 20 37 -3 37 -11 0 -22 -4 -25
-8z"/>
<path d="M7496 6874 c-9 -8 -16 -19 -16 -23 0 -16 38 -41 53 -35 22 8 31 42
17 59 -16 19 -35 19 -54 -1z"/>
<path d="M7804 6876 c-7 -19 3 -36 22 -36 10 0 14 8 12 22 -4 26 -26 36 -34
14z"/>
<path d="M7650 6866 c0 -8 5 -18 10 -21 6 -3 10 3 10 14 0 12 -4 21 -10 21 -5
0 -10 -6 -10 -14z"/>
<path d="M1525 6854 c-14 -14 -14 -19 -2 -38 21 -31 45 -32 58 -2 22 48 -18
77 -56 40z"/>
<path d="M7382 6818 c-20 -20 -14 -55 9 -61 40 -11 66 16 54 54 -7 22 -45 25
-63 7z"/>
<path d="M8055 6809 c-4 -6 -3 -15 3 -21 6 -6 11 -4 15 6 7 18 -9 31 -18 15z"/>
<path d="M7910 6779 c0 -25 33 -22 38 4 2 12 -3 17 -17 17 -15 0 -21 -6 -21
-21z"/>
<path d="M7576 6774 c-20 -19 -20 -28 -1 -44 15 -13 55 -5 55 11 0 16 -20 49
-30 49 -5 0 -16 -7 -24 -16z"/>
<path d="M1150 6765 c0 -8 7 -15 15 -15 8 0 15 7 15 15 0 8 -7 15 -15 15 -8 0
-15 -7 -15 -15z"/>
<path d="M1286 6744 c-21 -20 -20 -31 1 -43 23 -12 53 4 53 28 0 11 -7 22 -16
25 -21 8 -20 8 -38 -10z"/>
<path d="M1447 6739 c-8 -29 2 -49 23 -49 25 0 43 25 35 50 -9 28 -51 27 -58
-1z"/>
<path d="M7455 6694 c-9 -9 -14 -23 -11 -31 3 -8 6 -17 6 -19 0 -7 45 -4 58 5
15 9 13 42 -3 53 -16 12 -32 9 -50 -8z"/>
<path d="M7960 6680 c-13 -8 -13 -11 1 -25 13 -14 17 -14 27 -2 16 19 -7 40
-28 27z"/>
<path d="M8122 6668 c-7 -7 -12 -16 -12 -20 0 -12 28 -10 36 3 10 17 -10 31
-24 17z"/>
<path d="M903 6654 c-8 -22 18 -37 36 -20 7 8 10 19 7 25 -10 16 -36 13 -43
-5z"/>
<path d="M7696 6655 c-20 -20 -11 -42 19 -48 29 -5 44 25 25 48 -16 19 -25 19
-44 0z"/>
<path d="M1084 6645 c-4 -9 -2 -21 3 -26 14 -14 45 1 41 20 -4 22 -37 26 -44
6z"/>
<path d="M1366 6638 c-14 -20 -14 -24 -1 -38 12 -11 20 -12 33 -4 25 16 26 41
3 53 -16 9 -23 7 -35 -11z"/>
<path d="M7825 6650 c-3 -5 -1 -19 6 -31 10 -19 12 -20 26 -6 9 9 13 23 10 31
-7 18 -32 21 -42 6z"/>
<path d="M1210 6634 c0 -17 22 -14 28 4 2 7 -3 12 -12 12 -9 0 -16 -7 -16 -16z"/>
<path d="M7533 6595 c-14 -10 -20 -22 -16 -33 6 -18 32 -42 44 -42 13 0 39 31
39 45 0 14 -26 45 -38 45 -4 0 -17 -7 -29 -15z"/>
<path d="M976 6552 c-6 -10 19 -43 27 -35 13 12 7 43 -7 43 -8 0 -17 -3 -20
-8z"/>
<path d="M1285 6547 c-17 -13 -17 -15 3 -35 27 -27 38 -28 52 -3 7 15 6 23 -6
35 -19 19 -25 20 -49 3z"/>
<path d="M7704 6536 c-8 -32 2 -46 31 -46 26 0 36 18 28 49 -8 31 -51 28 -59
-3z"/>
<path d="M7901 6541 c-17 -11 -7 -41 13 -41 15 0 29 27 20 41 -7 11 -15 11
-33 0z"/>
<path d="M8065 6541 c-8 -15 3 -31 21 -31 9 0 14 7 12 17 -4 20 -24 28 -33 14z"/>
<path d="M8234 6539 c-10 -17 13 -36 27 -22 12 12 4 33 -11 33 -5 0 -12 -5
-16 -11z"/>
<path d="M1134 6516 c-16 -12 -17 -17 -5 -39 14 -27 37 -29 52 -6 22 36 -13
70 -47 45z"/>
<path d="M7605 6487 c-12 -18 -13 -24 -2 -41 24 -35 77 -30 77 9 0 44 -51 66
-75 32z"/>
<path d="M866 6465 c-3 -8 2 -21 10 -30 21 -20 24 -19 24 9 0 27 -25 42 -34
21z"/>
<path d="M7981 6456 c-15 -18 -3 -46 20 -46 24 0 42 33 27 48 -16 16 -33 15
-47 -2z"/>
<path d="M1046 6431 c-15 -17 -16 -24 -7 -35 18 -22 63 0 59 28 -4 28 -30 31
-52 7z"/>
<path d="M1217 6443 c-13 -12 -7 -61 8 -66 24 -10 59 26 51 51 -7 21 -44 31
-59 15z"/>
<path d="M7812 6428 c-19 -19 -14 -34 13 -46 21 -10 26 -9 36 9 6 11 8 27 5
35 -7 17 -38 18 -54 2z"/>
<path d="M7673 6385 c-19 -21 -16 -42 8 -59 25 -17 45 -12 51 12 12 44 -32 78
-59 47z"/>
<path d="M997 6349 c-20 -11 -23 -49 -5 -67 18 -18 26 -15 42 17 14 26 14 30
-2 44 -12 11 -22 13 -35 6z"/>
<path d="M8153 6344 c-3 -8 -1 -20 4 -25 14 -14 43 0 43 22 0 24 -38 26 -47 3z"/>
<path d="M710 6335 c-14 -16 -5 -35 16 -35 15 0 20 35 5 44 -5 3 -14 -1 -21
-9z"/>
<path d="M1141 6336 c-12 -14 -5 -46 9 -46 5 0 15 -3 23 -6 24 -9 41 31 21 50
-19 20 -38 20 -53 2z"/>
<path d="M888 6333 c-21 -5 -24 -36 -5 -52 11 -8 18 -6 32 9 16 18 17 22 4 34
-8 7 -22 11 -31 9z"/>
<path d="M7877 6328 c-7 -22 5 -48 22 -48 24 0 40 19 34 41 -6 22 -49 27 -56
7z"/>
<path d="M8018 6303 c-21 -5 -22 -13 -5 -37 16 -22 50 -18 55 6 4 19 -25 36
-50 31z"/>
<path d="M7730 6271 c-12 -23 -5 -47 16 -55 32 -12 60 19 49 55 -8 25 -51 25
-65 0z"/>
<path d="M8340 6256 c0 -22 17 -28 24 -10 9 22 8 24 -9 24 -8 0 -15 -6 -15
-14z"/>
<path d="M1108 6232 c-25 -5 -23 -49 2 -62 15 -8 24 -6 40 10 31 31 6 63 -42
52z"/>
<path d="M8112 6203 c-18 -18 -11 -47 12 -51 34 -7 51 52 18 60 -10 3 -23 -1
-30 -9z"/>
<path d="M814 6196 c-9 -24 3 -46 26 -46 17 0 21 5 18 27 -3 31 -34 44 -44 19z"/>
<path d="M675 6184 c-12 -12 -13 -19 -4 -30 14 -17 14 -17 33 1 15 15 12 45
-4 45 -5 0 -16 -7 -25 -16z"/>
<path d="M7947 6180 c-6 -24 17 -52 38 -44 15 6 16 9 19 42 2 27 -50 29 -57 2z"/>
<path d="M926 6175 c-17 -18 -12 -41 14 -55 32 -17 55 31 28 58 -16 16 -23 15
-42 -3z"/>
<path d="M487 6165 c-4 -8 -3 -16 1 -19 13 -8 35 11 28 23 -10 15 -23 14 -29
-4z"/>
<path d="M8431 6149 c7 -14 14 -18 21 -11 13 13 2 32 -18 32 -12 0 -13 -4 -3
-21z"/>
<path d="M7802 6148 c-18 -18 -14 -46 9 -58 39 -21 76 37 38 61 -19 12 -33 11
-47 -3z"/>
<path d="M8257 6140 c-3 -10 1 -27 8 -36 12 -16 13 -16 24 4 9 16 8 24 -5 36
-20 20 -21 20 -27 -4z"/>
<path d="M1037 6133 c-26 -26 14 -82 49 -69 17 7 19 47 2 64 -13 13 -41 16
-51 5z"/>
<path d="M730 6075 c-11 -13 -11 -19 3 -32 21 -21 49 -9 45 19 -4 28 -30 35
-48 13z"/>
<path d="M7990 6051 c-11 -22 6 -51 30 -51 24 0 42 31 30 51 -13 20 -49 20
-60 0z"/>
<path d="M8153 6063 c-20 -7 -15 -41 7 -53 16 -8 22 -8 26 4 13 34 -5 61 -33
49z"/>
<path d="M480 6046 c0 -9 5 -16 10 -16 6 0 10 4 10 9 0 6 -4 13 -10 16 -5 3
-10 -1 -10 -9z"/>
<path d="M862 6047 c-14 -16 10 -49 30 -42 17 7 20 37 4 47 -16 11 -22 10 -34
-5z"/>
<path d="M7846 6041 c-21 -23 -20 -34 5 -57 26 -24 54 -8 54 31 0 36 -36 52
-59 26z"/>
<path d="M8283 6034 c-8 -21 13 -42 28 -27 13 13 5 43 -11 43 -6 0 -13 -7 -17
-16z"/>
<path d="M987 5982 c-14 -16 -15 -21 -3 -37 27 -38 71 -20 64 27 -4 29 -38 35
-61 10z"/>
<path d="M7899 5919 c-9 -18 -7 -25 9 -41 34 -34 78 -7 65 41 -7 29 -58 29
-74 0z"/>
<path d="M833 5924 c-20 -9 -15 -42 8 -54 26 -14 51 4 47 34 -3 21 -30 30 -55
20z"/>
<path d="M8050 5910 c0 -25 32 -44 48 -28 7 7 12 20 12 30 0 13 -8 18 -30 18
-23 0 -30 -4 -30 -20z"/>
<path d="M683 5913 c-17 -6 -16 -38 1 -52 11 -9 18 -8 30 5 30 29 7 63 -31 47z"/>
<path d="M921 5871 c-19 -12 -6 -57 18 -64 24 -6 41 10 41 39 0 29 -31 42 -59
25z"/>
<path d="M8121 5851 c-16 -10 -21 -43 -8 -58 10 -14 46 -18 48 -5 7 38 4 54
-10 62 -10 5 -23 5 -30 1z"/>
<path d="M8550 5836 c0 -8 4 -17 9 -20 10 -7 23 19 14 28 -11 11 -23 6 -23 -8z"/>
<path d="M632 5827 c-10 -11 -9 -17 3 -27 22 -18 39 0 22 24 -11 15 -15 16
-25 3z"/>
<path d="M761 5822 c-8 -15 -7 -23 5 -33 20 -16 49 0 49 27 0 27 -41 31 -54 6z"/>
<path d="M8270 5815 c0 -28 27 -46 40 -25 13 21 4 45 -18 48 -18 3 -22 -2 -22
-23z"/>
<path d="M7971 5791 c-39 -25 -8 -72 34 -53 27 13 32 31 13 50 -14 14 -28 15
-47 3z"/>
<path d="M323 5783 c-10 -3 -10 -10 -2 -24 12 -23 31 -21 35 3 2 18 -14 28
-33 21z"/>
<path d="M503 5773 c-7 -2 -13 -16 -13 -29 0 -19 5 -24 24 -24 24 0 37 22 29
48 -5 12 -18 14 -40 5z"/>
<path d="M870 5745 c-20 -24 0 -50 36 -50 26 0 29 4 29 30 0 25 -4 31 -26 33
-15 2 -31 -4 -39 -13z"/>
<path d="M8437 5724 c-3 -4 -2 -16 4 -26 13 -24 35 -9 26 16 -7 17 -19 21 -30
10z"/>
<path d="M596 5695 c-7 -20 3 -45 19 -45 16 0 29 35 20 50 -9 15 -32 12 -39
-5z"/>
<path d="M721 5701 c-11 -7 -9 -13 8 -30 18 -18 25 -20 36 -11 11 9 12 17 4
31 -11 21 -26 24 -48 10z"/>
<path d="M8153 5699 c-26 -9 -29 -19 -11 -37 17 -17 35 -15 42 4 10 26 -6 43
-31 33z"/>
<path d="M8006 5671 c-14 -15 -14 -19 0 -39 25 -36 74 -23 74 19 0 33 -50 46
-74 20z"/>
<path d="M8256 5682 c-10 -17 7 -52 24 -52 20 0 36 33 25 50 -7 12 -42 13 -49
2z"/>
<path d="M455 5660 c-14 -16 -15 -23 -6 -34 22 -27 58 5 45 39 -8 20 -17 19
-39 -5z"/>
<path d="M8470 5621 c0 -23 8 -31 25 -24 16 6 9 29 -11 37 -9 3 -14 -1 -14
-13z"/>
<path d="M831 5613 c-20 -17 -21 -19 -5 -41 20 -28 54 -26 65 5 6 16 3 27 -7
38 -20 19 -27 19 -53 -2z"/>
<path d="M272 5584 c1 -9 9 -19 16 -22 9 -3 13 2 10 14 -1 9 -9 19 -16 22 -9
3 -13 -2 -10 -14z"/>
<path d="M560 5565 c-10 -12 -10 -18 0 -30 7 -8 18 -15 25 -15 7 0 18 7 25 15
10 12 10 18 0 30 -7 8 -18 15 -25 15 -7 0 -18 -7 -25 -15z"/>
<path d="M676 5551 c-20 -22 -16 -48 9 -57 23 -9 46 16 43 45 -4 32 -29 38
-52 12z"/>
<path d="M3753 5548 c-11 -23 -37 -89 -39 -98 0 -3 -3 -12 -7 -20 -27 -68 -64
-182 -86 -267 -15 -56 -33 -108 -40 -116 -12 -15 -99 -35 -176 -42 -22 -1 -46
-3 -52 -4 -26 -2 -12 -48 30 -93 41 -45 102 -81 129 -76 7 2 12 -4 11 -12 -2
-13 -27 -118 -38 -160 -2 -8 -4 -21 -4 -28 -1 -10 -6 -10 -21 -2 -17 9 -19 8
-13 -7 3 -10 3 -15 -2 -11 -4 4 -17 3 -28 -3 -14 -8 -18 -8 -13 0 11 18 -20
13 -35 -6 -12 -15 -12 -16 3 -10 10 3 22 -1 30 -11 12 -15 11 -16 -4 -3 -10 7
-18 10 -18 5 0 -5 -14 -10 -31 -11 -30 -2 -93 -56 -80 -69 3 -3 -1 -4 -10 -2
-16 3 -57 -26 -120 -84 -16 -15 -38 -30 -49 -33 -11 -3 -17 -12 -14 -20 3 -7
0 -16 -7 -21 -8 -5 -10 -3 -5 7 4 8 -1 4 -12 -8 -11 -13 -26 -23 -34 -23 -7 0
-24 -9 -38 -20 -14 -11 -31 -20 -37 -20 -7 0 -13 -5 -13 -12 0 -6 -3 -8 -7 -5
-3 4 -12 2 -20 -5 -15 -12 -108 -14 -141 -4 -17 6 -52 65 -66 111 -11 37 -14
105 -5 105 5 0 9 -4 9 -9 0 -5 14 -14 31 -20 28 -10 41 -7 116 29 47 22 89 40
93 40 5 0 21 11 37 24 15 13 42 30 58 39 17 8 48 33 70 54 23 21 67 60 99 88
56 48 58 51 53 90 -10 74 -16 89 -58 131 -64 65 -128 96 -204 97 -35 0 -70 -4
-77 -10 -7 -6 -17 -11 -21 -11 -17 2 -127 -67 -127 -79 0 -7 -6 -13 -12 -13
-18 0 -56 -36 -103 -95 -22 -27 -42 -52 -45 -55 -18 -18 -71 -122 -77 -150
-12 -59 -6 -127 21 -240 12 -52 79 -168 123 -214 25 -27 67 -58 92 -69 51 -22
159 -31 179 -14 10 8 16 7 23 -4 5 -8 9 -9 9 -3 0 5 33 23 72 39 69 26 102 51
92 67 -3 4 3 5 12 1 14 -5 16 -3 11 11 -4 10 -3 15 3 11 6 -3 13 1 16 9 3 9
10 14 14 11 14 -9 23 15 11 28 -7 9 -4 20 13 40 13 15 28 27 35 27 6 0 11 7
11 16 0 11 6 15 19 11 12 -3 22 1 25 10 3 8 2 11 -3 8 -5 -3 -12 -1 -15 3 -6
10 31 46 57 55 9 4 17 13 17 21 0 7 7 17 16 20 8 3 12 10 9 16 -3 6 1 7 9 4
10 -4 16 -1 16 9 0 8 7 20 15 27 12 10 14 6 9 -32 -19 -147 -8 -238 35 -292
102 -126 157 -153 218 -102 15 12 38 28 51 35 12 7 20 16 17 20 -3 5 7 12 20
15 14 4 23 11 20 16 -3 6 5 21 19 35 15 14 26 30 26 35 0 5 8 14 18 20 11 7
13 13 5 16 -15 7 25 68 52 80 11 5 20 15 20 21 0 7 12 26 27 42 20 21 24 31
15 40 -6 6 -8 11 -3 11 4 0 0 7 -8 16 -9 8 -14 19 -12 23 3 4 -4 13 -14 21
-19 14 -18 30 1 30 6 0 8 -4 4 -9 -3 -5 -1 -12 4 -16 6 -3 9 7 8 24 -1 22 -6
28 -19 26 -10 -2 -18 1 -18 6 0 17 -21 -1 -30 -27 -5 -13 -15 -24 -22 -24 -7
0 -22 -12 -33 -26 -11 -14 -44 -52 -74 -85 -30 -32 -62 -70 -70 -83 -16 -23
-24 -32 -80 -78 -11 -10 -22 -14 -24 -10 -5 10 -2 74 6 97 9 28 18 75 22 112
2 17 11 60 21 95 9 35 17 68 18 73 1 6 7 19 12 30 6 11 10 34 9 50 -1 17 2 35
6 40 4 6 6 20 5 30 -2 11 1 26 7 33 5 6 6 12 3 12 -15 0 40 50 59 53 11 2 27
7 35 10 8 4 29 8 45 11 17 2 32 5 35 6 3 1 9 2 13 1 8 -1 67 9 136 23 12 3 29
11 37 17 8 7 17 9 21 5 3 -3 1 -6 -5 -6 -7 0 -12 -4 -12 -9 0 -5 9 -7 20 -4
11 3 20 9 20 13 0 4 18 12 40 18 21 5 39 7 38 3 -2 -19 4 -22 18 -11 8 8 36
14 62 16 26 1 53 2 60 3 8 1 10 6 6 14 -5 7 0 6 11 -3 10 -8 16 -10 13 -5 -4
6 -3 17 3 25 7 12 9 11 9 -5 0 -18 1 -18 16 -3 11 10 14 23 10 35 -4 10 -8 20
-8 23 -5 18 -58 60 -83 66 -38 8 -156 9 -215 1 -87 -12 -125 -18 -160 -26 -33
-8 -65 -12 -119 -15 -16 -1 -25 5 -27 17 -1 9 1 15 6 12 7 -5 29 38 33 66 2 8
6 20 10 27 5 6 5 17 1 24 -4 6 -3 8 4 4 6 -3 14 -1 18 5 3 6 0 15 -7 20 -9 6
-10 9 -2 9 6 0 24 26 39 58 35 73 35 121 -2 165 -55 66 -112 86 -131 45z
m-724 -729 c-19 -16 -40 -29 -47 -29 -7 0 -15 -7 -18 -15 -3 -8 -14 -17 -25
-20 -10 -4 -19 -14 -19 -22 0 -9 -3 -13 -6 -10 -4 4 -19 -2 -33 -12 -31 -22
-117 -71 -126 -71 -25 0 115 146 164 171 14 8 29 18 32 23 11 14 104 35 108
24 2 -6 -12 -23 -30 -39z m438 -244 c0 -8 -4 -15 -9 -15 -5 0 -6 -5 -2 -12 5
-7 2 -9 -8 -5 -9 3 -20 1 -26 -5 -6 -6 -12 -6 -16 0 -3 6 2 13 13 17 11 3 22
12 25 20 7 19 23 19 23 0z m513 -115 c0 -5 -4 -10 -9 -10 -6 0 -13 5 -16 10
-3 6 1 10 9 10 9 0 16 -4 16 -10z m-20 -19 c0 -12 -20 -25 -27 -18 -7 7 6 27
18 27 5 0 9 -4 9 -9z m-35 -51 c3 -6 -1 -7 -9 -4 -18 7 -21 14 -7 14 6 0 13
-4 16 -10z m-60 -70 c3 -5 -1 -10 -10 -10 -9 0 -13 5 -10 10 3 6 8 10 10 10 2
0 7 -4 10 -10z"/>
<path d="M8032 5553 c-12 -22 2 -63 22 -63 7 0 24 9 37 19 20 16 22 23 13 38
-15 25 -60 29 -72 6z"/>
<path d="M8161 5551 c-8 -14 -6 -23 9 -36 19 -17 21 -17 40 0 23 21 11 55 -20
55 -11 0 -24 -8 -29 -19z"/>
<path d="M406 5524 c-20 -19 -20 -28 -2 -43 21 -18 50 14 36 40 -13 23 -14 23
-34 3z"/>
<path d="M8316 5531 c-17 -26 31 -60 53 -38 18 18 13 34 -11 41 -31 8 -36 8
-42 -3z"/>
<path d="M790 5505 c-28 -34 24 -80 55 -48 18 17 18 19 5 44 -13 23 -43 25
-60 4z"/>
<path d="M8474 5489 c-7 -12 15 -31 28 -23 4 3 8 12 8 20 0 17 -26 19 -36 3z"/>
<path d="M8062 5454 c-14 -11 -14 -14 0 -36 20 -31 47 -32 60 -2 21 45 -18 69
-60 38z"/>
<path d="M8645 5461 c-3 -5 -1 -12 5 -16 5 -3 10 1 10 9 0 18 -6 21 -15 7z"/>
<path d="M8207 5443 c-14 -13 -7 -51 11 -55 27 -7 42 2 42 27 0 27 -35 46 -53
28z"/>
<path d="M167 5415 c-5 -10 0 -15 14 -15 12 0 19 5 17 12 -6 18 -25 20 -31 3z"/>
<path d="M663 5423 c-7 -2 -13 -15 -13 -28 0 -13 6 -25 13 -28 21 -8 47 13 47
38 0 25 -16 31 -47 18z"/>
<path d="M8369 5404 c-10 -12 -9 -18 4 -31 13 -14 19 -14 32 -3 9 7 15 20 13
28 -4 20 -34 24 -49 6z"/>
<path d="M490 5395 c-18 -22 12 -55 37 -39 22 14 21 24 -3 41 -18 12 -23 11
-34 -2z"/>
<path d="M393 5393 c-17 -6 -16 -28 1 -42 12 -10 17 -8 26 9 16 30 4 46 -27
33z"/>
<path d="M766 5364 c-8 -21 -8 -20 10 -38 8 -9 24 -16 34 -16 23 0 36 36 20
55 -16 20 -56 19 -64 -1z"/>
<path d="M8514 5349 c-10 -17 13 -36 27 -22 12 12 4 33 -11 33 -5 0 -12 -5
-16 -11z"/>
<path d="M8104 5336 c-17 -13 -17 -15 -1 -40 10 -14 22 -26 27 -26 15 0 41 32
38 48 -4 22 -43 33 -64 18z"/>
<path d="M8243 5337 c-13 -5 -23 -16 -23 -23 0 -48 44 -61 61 -17 13 35 -6 56
-38 40z"/>
<path d="M256 5325 c-4 -10 1 -15 14 -15 11 0 20 7 20 15 0 8 -6 15 -14 15 -8
0 -16 -7 -20 -15z"/>
<path d="M627 5298 c-22 -8 -26 -14 -22 -36 5 -29 20 -41 44 -37 9 2 19 4 23
4 12 2 14 35 4 59 -10 25 -10 24 -49 10z"/>
<path d="M740 5248 c-26 -24 -11 -58 26 -58 28 0 39 19 30 53 -7 29 -29 30
-56 5z"/>
<path d="M486 5238 c-19 -26 -5 -48 29 -48 28 0 40 26 22 48 -18 25 -34 25
-51 0z"/>
<path d="M8400 5246 c0 -15 37 -32 47 -22 3 3 3 12 0 21 -8 19 -47 20 -47 1z"/>
<path d="M350 5235 c-10 -12 -10 -18 0 -29 13 -17 36 -12 44 10 8 21 -29 37
-44 19z"/>
<path d="M8548 5235 c-3 -3 -3 -15 -1 -26 7 -26 38 -21 38 6 0 19 -25 32 -37
20z"/>
<path d="M8795 5210 c-3 -5 -1 -10 4 -10 6 0 11 5 11 10 0 6 -2 10 -4 10 -3 0
-8 -4 -11 -10z"/>
<path d="M578 5174 c-10 -21 -9 -27 3 -35 30 -19 69 11 56 45 -10 25 -46 19
-59 -10z"/>
<path d="M7160 5192 c-19 -7 -40 -34 -36 -47 1 -5 -2 -15 -8 -21 -23 -25 -45
-53 -56 -73 -6 -12 -16 -18 -22 -15 -6 4 -8 3 -5 -3 4 -6 -7 -26 -23 -44 -16
-19 -30 -39 -30 -46 0 -7 -13 -26 -30 -43 -16 -17 -30 -35 -30 -40 0 -6 -8
-18 -17 -28 -30 -30 -68 -85 -93 -135 -14 -27 -35 -57 -47 -67 -13 -10 -23
-22 -23 -28 0 -5 -11 -17 -25 -26 -14 -9 -25 -23 -25 -31 0 -8 -8 -23 -17 -34
-10 -10 -31 -37 -47 -60 -15 -23 -30 -40 -33 -38 -11 11 -4 208 7 222 9 11 10
15 1 15 -7 0 -9 5 -4 13 4 6 8 23 8 37 0 14 4 30 8 37 4 6 4 18 1 26 -3 9 4
21 18 31 12 9 17 16 11 16 -14 0 -7 52 8 61 6 3 11 10 11 15 0 5 5 20 10 33 9
26 7 51 -11 118 -16 59 -99 121 -146 109 -18 -5 -24 -15 -29 -53 -4 -27 -14
-73 -23 -103 -9 -30 -17 -57 -18 -60 0 -3 -6 -27 -12 -55 -18 -75 -35 -268
-35 -395 0 -134 48 -264 130 -349 29 -30 52 -51 52 -48 0 3 14 2 31 -3 34 -10
41 -6 90 56 18 23 25 41 21 59 -3 19 -1 24 10 20 8 -3 21 2 29 11 8 10 9 15 2
11 -6 -4 -14 -3 -18 3 -3 5 1 10 9 10 8 0 17 9 21 19 3 11 12 22 20 25 8 3 15
14 15 25 0 11 10 29 22 41 12 11 19 23 15 26 -4 4 5 18 19 31 14 12 22 28 19
33 -3 6 -1 10 5 10 6 0 9 4 6 9 -3 5 8 23 24 41 17 18 30 36 30 40 0 5 5 12
12 16 7 5 8 3 3 -6 -5 -9 -4 -11 4 -6 6 4 9 16 6 26 -4 13 0 20 15 25 12 4 19
13 16 20 -2 7 2 16 10 19 8 3 14 15 14 26 0 11 5 20 10 20 6 0 10 6 10 13 0 6
15 22 33 35 17 12 26 22 19 22 -7 0 -10 5 -7 10 5 8 11 7 21 -1 12 -10 15 -10
12 2 -2 8 -7 17 -13 21 -6 5 -4 8 5 8 8 0 20 8 25 18 31 56 79 121 86 116 5
-3 9 1 9 8 0 7 17 28 37 46 24 21 33 35 26 38 -10 4 -10 10 0 25 9 14 9 22 1
27 -6 4 -15 17 -18 30 -9 28 -55 72 -76 72 -9 0 -20 4 -25 9 -6 5 -17 6 -25 3z"/>
<path d="M8138 5183 c-22 -6 -23 -27 -2 -47 18 -19 36 -20 51 -5 16 16 -5 62
-27 58 -3 -1 -13 -3 -22 -6z"/>
<path d="M8292 5178 c-15 -15 3 -48 27 -48 19 0 31 18 31 46 0 17 -41 19 -58
2z"/>
<path d="M40 5163 c0 -4 5 -15 10 -23 8 -13 10 -13 10 2 0 9 -4 20 -10 23 -5
3 -10 3 -10 -2z"/>
<path d="M483 5155 c-26 -18 -20 -45 8 -45 23 0 34 23 22 44 -8 14 -11 14 -30
1z"/>
<path d="M706 5134 c-29 -28 -16 -60 27 -68 23 -4 30 0 39 20 9 19 8 28 -7 44
-22 24 -38 25 -59 4z"/>
<path d="M8428 5133 c-19 -22 -13 -43 12 -43 23 0 42 23 34 44 -8 21 -27 20
-46 -1z"/>
<path d="M140 5071 c0 -15 6 -21 21 -21 14 0 19 5 17 17 -5 26 -38 29 -38 4z"/>
<path d="M281 5081 c-8 -5 -7 -12 3 -26 16 -22 49 -13 44 12 -3 17 -28 25 -47
14z"/>
<path d="M5490 5069 c-19 -10 -38 -15 -41 -14 -3 2 -16 -6 -30 -18 -14 -12
-19 -18 -12 -13 8 5 16 7 18 4 3 -2 -13 -15 -35 -27 -22 -12 -40 -29 -40 -37
0 -8 -6 -14 -14 -14 -12 0 -28 -22 -30 -42 -1 -4 -9 -17 -18 -28 -10 -11 -18
-23 -18 -27 0 -3 -11 -20 -23 -37 -13 -17 -26 -38 -30 -46 -3 -9 -6 -4 -6 13
-1 15 -5 27 -9 27 -8 0 -11 17 -14 80 -1 23 -86 98 -125 111 -50 16 -65 7 -57
-35 9 -52 9 -160 -1 -176 -5 -8 -5 -15 1 -17 5 -2 8 -22 7 -46 -2 -23 -4 -118
-6 -212 -1 -93 -6 -176 -10 -182 -5 -8 -3 -13 4 -13 10 0 10 -3 1 -12 -7 -7
-8 -17 -2 -29 7 -12 6 -22 -4 -32 -32 -32 53 -137 145 -178 20 -9 40 -14 45
-10 22 15 32 49 25 87 -6 33 -5 83 2 176 1 9 4 15 6 12 3 -3 18 34 33 82 15
48 34 94 42 103 7 9 17 27 21 41 4 14 14 33 23 43 9 10 17 26 18 35 2 9 13 25
25 34 11 10 17 18 13 18 -5 0 -2 6 7 13 9 7 25 30 36 52 21 40 63 86 63 69 0
-5 12 5 28 21 15 16 26 33 24 38 -1 5 1 6 6 3 5 -3 19 1 33 7 13 7 46 14 73
16 58 3 112 36 95 58 -6 7 -8 13 -5 13 4 0 -17 24 -47 54 l-54 53 -64 -1 c-37
-1 -79 -8 -99 -17z"/>
<path d="M8582 5078 c-8 -8 -8 -17 -1 -30 10 -19 12 -19 30 -2 14 13 16 20 8
31 -14 16 -22 16 -37 1z"/>
<path d="M573 5069 c-43 -16 -17 -78 27 -64 12 4 20 15 20 29 0 32 -19 46 -47
35z"/>
<path d="M8161 5057 c-19 -19 -12 -46 13 -53 31 -7 46 1 46 26 0 30 -39 47
-59 27z"/>
<path d="M8276 5055 c-7 -20 3 -45 20 -45 16 0 33 30 27 48 -6 17 -40 15 -47
-3z"/>
<path d="M2157 5039 c-41 -10 -127 -51 -149 -71 -7 -7 -37 -33 -66 -57 -59
-48 -145 -136 -151 -154 -2 -7 -9 -19 -17 -27 -7 -8 -14 -22 -16 -30 -2 -8 -6
-17 -9 -20 -13 -11 -57 -97 -64 -125 -19 -73 -26 -185 -13 -185 5 0 7 -4 4 -9
-18 -28 98 -168 159 -191 50 -19 92 -12 130 21 36 32 89 99 67 85 -8 -5 -10
-2 -6 8 3 9 11 13 16 9 7 -4 9 3 6 20 -4 18 -1 24 9 20 9 -4 11 0 7 11 -5 12
-2 15 10 10 10 -4 16 -1 16 9 0 9 15 32 34 51 18 20 31 36 27 36 -3 0 2 7 13
15 10 8 15 19 10 26 -4 8 -3 10 4 5 6 -4 19 5 28 19 15 24 53 37 38 14 -3 -6
-7 -39 -8 -74 0 -35 -4 -61 -8 -58 -5 2 -8 -8 -9 -24 -1 -32 -7 -102 -13 -153
-2 -19 -7 -64 -11 -98 -3 -35 -10 -74 -15 -87 -5 -13 -6 -26 -3 -29 3 -3 1
-11 -4 -18 -6 -7 -10 -20 -11 -28 0 -35 -15 -97 -28 -122 -8 -16 -12 -28 -9
-28 3 0 -2 -17 -11 -37 -8 -21 -17 -45 -19 -54 -6 -28 -65 -149 -73 -149 -4 0
-12 -10 -17 -22 -28 -61 -162 -81 -262 -39 -18 7 -33 18 -33 24 0 6 -3 7 -6 4
-4 -3 -16 -1 -27 4 -20 11 -72 20 -63 11 3 -2 1 -13 -4 -23 -13 -23 25 -62 88
-91 23 -10 42 -23 42 -28 0 -6 3 -9 8 -9 14 3 72 -14 72 -20 0 -4 8 -7 18 -8
9 -1 35 -4 57 -8 82 -13 140 -13 154 -2 12 10 14 9 8 -6 -4 -11 -3 -16 3 -12
5 3 20 8 32 10 13 3 31 15 42 27 10 13 22 22 27 21 5 -2 5 5 2 14 -4 11 -3 14
5 9 8 -5 12 0 12 12 0 10 9 27 19 36 22 20 34 56 19 56 -5 0 -3 7 4 15 31 34
39 46 49 72 6 16 10 29 10 30 0 2 4 16 9 32 5 19 4 33 -3 41 -9 10 -9 11 0 6
7 -4 14 8 18 34 4 25 11 38 18 33 6 -4 8 0 4 10 -3 9 -2 19 2 22 17 10 41 132
45 225 2 25 5 52 9 60 11 28 16 120 6 120 -5 0 -3 10 5 23 8 12 15 40 15 62 1
53 7 110 13 121 3 5 6 32 7 59 3 70 11 192 16 240 9 94 6 167 -9 188 -47 69
-60 78 -151 102 -50 14 -90 24 -90 24 0 -1 -17 -5 -38 -10z m13 -218 c-5 -11
-14 -23 -20 -26 -5 -3 -18 -25 -28 -48 -16 -36 -47 -81 -92 -134 -5 -7 -10
-16 -10 -21 0 -5 -11 -18 -25 -30 -14 -12 -25 -27 -25 -32 0 -6 -11 -23 -25
-38 -14 -15 -25 -30 -25 -35 0 -4 -13 -22 -30 -40 -16 -18 -30 -35 -30 -39 0
-5 -5 -8 -11 -8 -7 0 -9 9 -5 23 13 44 18 62 18 75 1 6 5 12 9 12 7 0 22 40
20 54 -1 5 2 12 6 15 4 3 17 24 28 46 34 67 98 138 181 201 65 48 80 54 64 25z"/>
<path d="M6053 5035 c-24 -7 -43 -11 -43 -9 0 2 -17 -8 -37 -21 -137 -88 -252
-205 -320 -325 -58 -101 -71 -140 -79 -231 -7 -86 14 -142 77 -207 66 -68 100
-86 156 -79 36 4 50 13 88 53 25 27 45 57 45 67 0 10 8 21 17 24 15 6 15 7 -3
14 -17 7 -17 8 -1 8 10 1 15 6 12 11 -3 6 0 10 7 10 17 1 51 47 43 60 -4 6 -3
10 2 9 17 -3 33 1 31 9 -3 8 18 35 70 91 l34 36 -7 -69 c-3 -38 -8 -73 -10
-76 -3 -4 -7 -43 -10 -86 -3 -43 -10 -83 -15 -89 -6 -7 -7 -14 -4 -18 8 -7
-14 -176 -32 -247 -7 -30 -15 -66 -18 -80 -2 -14 -19 -65 -36 -115 -18 -49
-33 -94 -35 -100 -12 -41 -18 -55 -26 -55 -5 0 -9 -4 -9 -9 0 -5 -10 -25 -22
-44 -58 -89 -177 -106 -305 -44 -65 31 -74 33 -92 20 -32 -22 -26 -38 27 -75
107 -77 216 -112 349 -112 38 1 60 -3 56 -9 -4 -6 -1 -7 8 -1 8 4 23 10 33 11
10 2 26 12 35 23 37 45 51 65 51 73 0 6 7 15 15 21 9 6 17 25 19 41 2 16 8 31
15 33 6 2 9 8 5 13 -3 5 -1 9 4 9 14 0 42 70 45 113 1 9 5 17 10 17 5 0 5 6 0
13 -12 15 -13 48 -1 41 4 -3 8 0 8 6 0 6 5 8 11 4 7 -4 7 1 -1 16 -7 12 -8 20
-2 17 8 -6 37 61 31 73 -1 3 3 16 10 29 7 13 14 49 16 80 2 31 4 56 5 56 7 0
6 36 -1 41 -6 4 -6 11 1 18 5 7 13 35 16 62 3 27 7 51 10 53 2 2 -4 13 -13 24
-10 11 -12 17 -5 13 15 -9 19 3 27 79 4 33 8 74 10 90 3 17 6 49 9 72 2 23 7
47 11 52 3 6 2 11 -2 11 -5 0 -8 12 -7 28 2 15 6 54 9 87 3 33 7 102 9 152 3
85 2 95 -19 117 -12 13 -25 30 -28 38 -6 18 -91 60 -95 48 -2 -5 -18 -3 -35 4
-54 22 -80 25 -124 11z m26 -212 c-8 -10 -20 -24 -26 -31 -7 -7 -13 -20 -13
-28 0 -8 -4 -14 -10 -14 -5 0 -9 -4 -7 -9 1 -5 -15 -32 -35 -60 -21 -28 -38
-53 -38 -56 0 -6 -29 -42 -55 -67 -11 -10 -20 -22 -20 -26 0 -4 -18 -32 -40
-61 -22 -30 -44 -62 -49 -71 -14 -26 -43 -42 -43 -24 0 8 4 14 8 14 4 0 7 8 6
19 -2 32 79 210 115 253 13 14 30 35 39 45 40 46 152 133 173 133 4 0 2 -8 -5
-17z"/>
<path d="M457 5015 c-28 -28 2 -70 41 -58 19 7 14 51 -7 63 -15 7 -23 6 -34
-5z"/>
<path d="M4813 5015 c-3 -9 -6 -32 -8 -53 -4 -73 -11 -75 -73 -16 -53 52 -58
54 -96 49 -73 -11 -137 -49 -231 -140 -83 -80 -214 -259 -255 -350 -47 -103
-8 -219 117 -347 14 -16 32 -28 40 -28 7 0 16 -7 19 -15 4 -8 10 -12 15 -9 5
3 9 1 9 -4 0 -10 106 -34 130 -29 30 6 76 37 100 67 14 17 34 41 45 53 18 19
32 45 37 67 1 3 8 11 15 18 20 21 73 99 69 103 -2 2 2 10 10 17 12 11 14 8 15
-15 1 -15 3 -77 4 -138 5 -148 11 -172 50 -212 35 -36 95 -53 95 -26 0 7 4 13
8 13 12 0 12 4 16 270 3 215 7 272 20 319 6 20 18 157 20 233 2 55 0 59 -43
107 -39 42 -95 81 -116 81 -3 0 -8 -7 -12 -15z m-71 -247 c-54 -107 -115 -214
-126 -220 -6 -4 -12 -12 -12 -18 -1 -5 -2 -13 -3 -17 -2 -11 -74 -88 -80 -86
-3 0 -12 -5 -19 -13 -11 -12 -10 -14 3 -14 26 0 17 -21 -32 -70 -80 -80 -158
-97 -168 -37 -7 45 -1 78 23 129 12 24 22 49 22 54 0 6 20 33 45 60 25 27 45
54 45 61 0 7 6 13 13 13 13 0 57 52 58 67 0 5 9 11 21 16 11 4 22 16 25 27 3
11 9 18 13 15 4 -2 22 9 41 26 52 46 123 75 143 57 6 -5 2 -24 -12 -50z"/>
<path d="M698 5009 c-20 -11 -24 -49 -7 -66 15 -15 57 -4 64 18 15 46 -16 72
-57 48z"/>
<path d="M8437 4991 c-6 -24 16 -46 39 -37 23 9 14 50 -12 54 -15 2 -23 -3
-27 -17z"/>
<path d="M293 4944 c-8 -20 9 -49 28 -49 12 0 16 22 10 58 -2 14 -32 7 -38 -9z"/>
<path d="M8169 4944 c-14 -17 -4 -63 17 -71 18 -7 53 23 50 43 -5 34 -47 52
-67 28z"/>
<path d="M8340 4935 c-6 -8 -9 -19 -5 -25 10 -16 42 -12 49 6 12 32 -21 47
-44 19z"/>
<path d="M187 4924 c-14 -14 -7 -35 11 -32 9 2 17 10 17 17 0 16 -18 25 -28
15z"/>
<path d="M8610 4914 c0 -8 5 -12 10 -9 6 3 10 10 10 16 0 5 -4 9 -10 9 -5 0
-10 -7 -10 -16z"/>
<path d="M557 4902 c-22 -24 -21 -39 3 -52 23 -12 35 -7 50 20 7 14 6 23 -6
34 -20 20 -27 20 -47 -2z"/>
<path d="M395 4893 c-14 -13 -14 -18 -2 -37 18 -27 43 -32 51 -10 16 40 -21
76 -49 47z"/>
<path d="M682 4882 c-34 -22 -14 -82 28 -82 31 0 40 48 14 74 -17 18 -24 19
-42 8z"/>
<path d="M8732 4879 c2 -6 8 -10 13 -10 5 0 11 4 13 10 2 6 -4 11 -13 11 -9 0
-15 -5 -13 -11z"/>
<path d="M8461 4856 c-14 -17 11 -41 34 -32 13 4 14 10 5 26 -13 23 -23 25
-39 6z"/>
<path d="M8188 4813 c-10 -3 -18 -8 -19 -11 0 -4 -2 -15 -4 -24 -2 -9 3 -25
11 -36 23 -34 72 -8 70 37 -1 18 -37 39 -58 34z"/>
<path d="M300 4794 c0 -8 5 -12 10 -9 6 4 8 11 5 16 -9 14 -15 11 -15 -7z"/>
<path d="M8304 4795 c-15 -11 -17 -17 -8 -32 16 -26 58 -24 62 4 4 30 -29 47
-54 28z"/>
<path d="M160 4780 c-13 -8 -12 -13 7 -32 20 -19 23 -20 29 -5 7 19 -1 47 -13
47 -4 0 -15 -5 -23 -10z"/>
<path d="M8605 4780 c3 -5 8 -10 11 -10 2 0 4 5 4 10 0 6 -5 10 -11 10 -5 0
-7 -4 -4 -10z"/>
<path d="M554 4755 c-10 -25 4 -45 30 -45 27 0 42 26 25 46 -15 19 -48 18 -55
-1z"/>
<path d="M661 4726 c-18 -24 -19 -45 -2 -60 27 -25 60 -20 67 9 10 42 -41 82
-65 51z"/>
<path d="M392 4708 c-19 -19 -15 -60 4 -56 28 5 41 35 23 53 -12 12 -17 13
-27 3z"/>
<path d="M8508 4704 c-12 -11 4 -34 24 -34 13 0 18 6 16 17 -3 18 -29 29 -40
17z"/>
<path d="M8191 4662 c-17 -32 -3 -62 29 -62 29 0 41 22 27 49 -14 29 -44 35
-56 13z"/>
<path d="M261 4651 c-15 -27 10 -47 38 -31 17 9 19 15 11 30 -14 25 -36 26
-49 1z"/>
<path d="M8780 4661 c0 -6 5 -13 10 -16 6 -3 10 1 10 9 0 9 -4 16 -10 16 -5 0
-10 -4 -10 -9z"/>
<path d="M8360 4626 c0 -28 33 -41 51 -20 17 20 3 44 -26 44 -20 0 -25 -5 -25
-24z"/>
<path d="M544 4613 c-18 -19 -18 -27 4 -45 34 -30 80 10 54 48 -10 15 -41 13
-58 -3z"/>
<path d="M408 4583 c-29 -35 6 -78 37 -47 19 19 19 29 -1 48 -19 20 -18 20
-36 -1z"/>
<path d="M652 4588 c-22 -27 -18 -51 11 -60 48 -17 84 36 43 64 -17 12 -42 9
-54 -4z"/>
<path d="M8630 4580 c0 -5 5 -10 11 -10 5 0 7 5 4 10 -3 6 -8 10 -11 10 -2 0
-4 -4 -4 -10z"/>
<path d="M135 4570 c-4 -7 -3 -16 3 -22 14 -14 45 -2 40 15 -6 16 -34 21 -43
7z"/>
<path d="M8191 4538 c-9 -14 -7 -22 10 -39 21 -21 21 -21 41 -1 16 16 18 23 9
40 -13 25 -44 25 -60 0z"/>
<path d="M8455 4550 c-8 -13 3 -30 20 -30 19 0 26 27 9 34 -21 8 -22 8 -29 -4z"/>
<path d="M8336 4534 c-8 -20 10 -54 29 -54 18 0 38 37 31 56 -7 19 -52 18 -60
-2z"/>
<path d="M261 4522 c-12 -23 1 -45 25 -40 17 3 20 12 15 48 -2 17 -30 11 -40
-8z"/>
<path d="M553 4512 c-29 -18 10 -71 43 -58 20 8 17 44 -5 56 -23 12 -23 12
-38 2z"/>
<path d="M8737 4493 c-12 -11 -8 -23 8 -23 8 0 15 7 15 15 0 16 -12 20 -23 8z"/>
<path d="M670 4462 c-19 -16 -21 -22 -11 -40 13 -24 40 -29 59 -10 35 35 -10
81 -48 50z"/>
<path d="M8910 4444 c0 -8 5 -12 10 -9 6 4 8 11 5 16 -9 14 -15 11 -15 -7z"/>
<path d="M114 4425 c-9 -23 10 -40 25 -22 9 11 8 17 -4 27 -12 10 -16 9 -21
-5z"/>
<path d="M400 4419 c-7 -11 -10 -22 -8 -23 2 -1 10 -7 19 -14 13 -10 19 -8 33
7 16 17 16 20 1 35 -22 21 -32 20 -45 -5z"/>
<path d="M8222 4415 c-21 -16 -20 -46 2 -64 17 -14 56 14 56 39 0 29 -32 42
-58 25z"/>
<path d="M568 4409 c-34 -19 -12 -78 30 -79 19 0 31 41 19 68 -11 24 -23 27
-49 11z"/>
<path d="M8494 4409 c-3 -6 1 -18 10 -27 15 -15 18 -15 26 -2 5 9 5 19 -2 27
-13 16 -25 17 -34 2z"/>
<path d="M8344 4364 c-8 -31 7 -48 35 -39 26 8 27 41 2 55 -27 14 -30 13 -37
-16z"/>
<path d="M8622 4367 c-7 -7 -7 -18 -2 -27 7 -11 11 -11 24 -1 8 7 12 19 9 27
-6 17 -17 18 -31 1z"/>
<path d="M297 4361 c-16 -6 -16 -8 -2 -28 18 -26 45 -20 38 8 -7 24 -13 28
-36 20z"/>
<path d="M669 4341 c-21 -17 -22 -21 -10 -44 9 -18 20 -24 37 -22 29 3 29 3
38 31 4 14 1 28 -9 38 -21 20 -28 20 -56 -3z"/>
<path d="M431 4303 c-15 -33 -14 -40 8 -46 23 -6 50 9 47 26 -10 48 -38 58
-55 20z"/>
<path d="M8218 4283 c-21 -5 -24 -45 -5 -61 14 -12 24 -7 46 21 11 14 11 20 1
32 -7 8 -15 14 -19 14 -3 -1 -14 -3 -23 -6z"/>
<path d="M8453 4273 c-20 -7 -15 -41 6 -52 14 -8 22 -7 32 5 10 12 9 18 -7 33
-10 10 -25 17 -31 14z"/>
<path d="M519 4248 c-10 -18 -8 -24 11 -40 38 -31 83 15 48 50 -19 19 -46 14
-59 -10z"/>
<path d="M3219 4257 c7 -7 14 -8 21 -1 6 6 2 10 -12 11 -16 2 -18 -1 -9 -10z"/>
<path d="M8351 4256 c-16 -19 20 -51 37 -34 17 17 15 26 -7 37 -14 8 -22 7
-30 -3z"/>
<path d="M231 4242 c-9 -18 -8 -23 8 -31 24 -14 35 9 17 35 -13 17 -14 16 -25
-4z"/>
<path d="M693 4229 c-27 -10 -42 -57 -22 -70 27 -16 69 1 69 29 -1 31 -23 50
-47 41z"/>
<path d="M386 4193 c-8 -20 19 -44 40 -36 17 6 18 25 2 41 -17 17 -35 15 -42
-5z"/>
<path d="M8606 4184 c-3 -9 -2 -22 2 -30 12 -21 45 5 36 29 -8 21 -30 22 -38
1z"/>
<path d="M8207 4159 c-22 -13 -22 -45 -1 -53 16 -6 54 19 54 35 0 16 -35 28
-53 18z"/>
<path d="M546 4127 c-24 -17 -17 -51 11 -55 30 -4 49 31 27 52 -19 19 -16 19
-38 3z"/>
<path d="M8291 4102 c-7 -14 -6 -24 4 -38 18 -25 50 -7 50 27 0 31 -39 39 -54
11z"/>
<path d="M260 4095 c-16 -19 -5 -47 17 -43 11 2 18 12 18 27 0 29 -17 37 -35
16z"/>
<path d="M8441 4096 c-15 -17 12 -48 34 -40 20 8 19 40 -1 48 -21 8 -20 8 -33
-8z"/>
<path d="M5 4090 c3 -5 8 -10 11 -10 2 0 4 5 4 10 0 6 -5 10 -11 10 -5 0 -7
-4 -4 -10z"/>
<path d="M662 4075 c-16 -34 13 -65 52 -58 22 5 26 11 26 38 0 50 -58 65 -78
20z"/>
<path d="M8183 4054 c-16 -7 0 -59 18 -60 8 0 22 6 31 14 33 27 -6 63 -49 46z"/>
<path d="M175 4040 c-9 -15 -1 -23 21 -18 15 3 16 4 1 16 -11 9 -17 10 -22 2z"/>
<path d="M8567 4044 c-9 -10 12 -46 24 -39 14 9 11 45 -4 45 -8 0 -17 -3 -20
-6z"/>
<path d="M406 4014 c-8 -21 -8 -21 13 -27 26 -6 33 1 20 24 -12 23 -25 24 -33
3z"/>
<path d="M566 3985 c-24 -24 -20 -44 11 -56 22 -8 30 -7 40 7 11 15 10 21 0
38 -18 27 -32 30 -51 11z"/>
<path d="M692 3974 c-28 -19 -28 -39 0 -58 28 -20 33 -20 51 -1 34 34 -12 86
-51 59z"/>
<path d="M8342 3983 c-10 -4 -10 -8 -1 -19 17 -20 39 -17 39 6 0 20 -12 24
-38 13z"/>
<path d="M8786 3965 c4 -8 10 -12 15 -9 14 8 10 24 -6 24 -9 0 -12 -6 -9 -15z"/>
<path d="M446 3913 c-4 -9 0 -23 9 -32 13 -14 17 -14 32 1 13 14 14 20 3 32
-16 21 -36 20 -44 -1z"/>
<path d="M8182 3923 c-23 -8 -34 -41 -20 -62 20 -33 76 5 62 43 -7 17 -24 25
-42 19z"/>
<path d="M8577 3893 c-4 -3 -7 -15 -7 -25 0 -28 34 -19 38 10 3 21 -16 31 -31
15z"/>
<path d="M8414 3884 c-13 -6 -6 -54 8 -54 5 0 16 7 25 15 12 12 13 19 3 30
-13 16 -17 17 -36 9z"/>
<path d="M8265 3850 c-9 -15 4 -50 19 -50 7 0 20 6 30 13 17 13 17 14 1 30
-19 19 -41 22 -50 7z"/>
<path d="M350 3841 c0 -11 26 -22 34 -14 3 3 3 10 0 14 -7 12 -34 11 -34 0z"/>
<path d="M715 3824 c-28 -30 -25 -41 13 -55 33 -13 57 9 48 44 -9 37 -33 41
-61 11z"/>
<path d="M579 3819 c-9 -17 -8 -23 2 -30 37 -23 75 5 49 36 -18 21 -37 19 -51
-6z"/>
<path d="M8711 3801 c-10 -7 -10 -10 -1 -16 6 -4 16 -3 22 3 13 13 -4 23 -21
13z"/>
<path d="M8138 3774 c-11 -23 -10 -29 11 -45 22 -18 25 -18 42 -3 15 13 16 21
7 38 -22 42 -44 46 -60 10z"/>
<path d="M466 3772 c-9 -14 5 -50 22 -57 22 -8 36 10 28 39 -6 25 -38 37 -50
18z"/>
<path d="M8500 3735 c0 -14 6 -25 13 -25 21 0 27 11 16 31 -14 27 -29 23 -29
-6z"/>
<path d="M8255 3726 c-22 -16 -11 -61 12 -52 8 3 19 6 24 6 15 0 10 47 -5 53
-8 3 -22 0 -31 -7z"/>
<path d="M601 3702 c-12 -23 11 -55 36 -50 22 4 29 34 13 53 -17 20 -37 19
-49 -3z"/>
<path d="M317 3703 c-13 -12 -7 -41 10 -47 22 -9 36 7 28 33 -6 21 -25 28 -38
14z"/>
<path d="M731 3688 c-7 -17 -5 -26 7 -35 33 -26 76 -9 70 28 -2 19 -10 25 -36
27 -26 3 -34 -1 -41 -20z"/>
<path d="M8386 3685 c-10 -27 4 -46 25 -34 23 12 25 35 3 43 -21 8 -21 8 -28
-9z"/>
<path d="M8142 3668 c-17 -17 -15 -48 3 -55 18 -6 58 25 49 38 -11 19 -41 28
-52 17z"/>
<path d="M8580 3625 c0 -8 7 -15 15 -15 8 0 15 7 15 15 0 8 -7 15 -15 15 -8 0
-15 -7 -15 -15z"/>
<path d="M510 3605 c-19 -22 -8 -50 21 -53 32 -4 46 30 22 53 -18 19 -27 19
-43 0z"/>
<path d="M618 3589 c-13 -7 -15 -15 -9 -32 13 -34 60 -26 61 10 0 19 -33 33
-52 22z"/>
<path d="M762 3584 c-27 -18 -28 -36 -4 -56 32 -28 79 -6 67 31 -10 32 -38 43
-63 25z"/>
<path d="M8230 3560 c-8 -15 -6 -21 9 -30 11 -5 24 -10 29 -10 16 0 23 31 11
46 -16 20 -37 17 -49 -6z"/>
<path d="M8091 3540 c-21 -12 -5 -60 19 -60 25 0 45 34 27 47 -24 19 -33 22
-46 13z"/>
<path d="M8515 3510 c-3 -5 1 -10 9 -10 8 0 18 5 21 10 3 6 -1 10 -9 10 -8 0
-18 -4 -21 -10z"/>
<path d="M516 3503 c-12 -12 -6 -33 9 -33 8 0 15 6 15 14 0 17 -14 28 -24 19z"/>
<path d="M8377 3460 c-6 -23 21 -43 42 -31 19 12 9 46 -15 49 -15 2 -23 -4
-27 -18z"/>
<path d="M8196 3462 c-3 -3 -6 -16 -6 -29 0 -20 5 -24 23 -21 29 4 36 43 8 51
-11 2 -22 2 -25 -1z"/>
<path d="M662 3428 c3 -29 6 -33 33 -33 20 0 30 5 29 15 -2 31 -17 50 -41 50
-21 0 -24 -4 -21 -32z"/>
<path d="M798 3449 c-24 -13 -23 -36 1 -49 25 -13 27 -13 45 6 12 12 13 20 6
35 -12 21 -26 23 -52 8z"/>
<path d="M8053 3385 c-13 -9 -19 -22 -16 -34 7 -26 39 -33 58 -11 14 16 14 19
-2 39 -17 20 -20 20 -40 6z"/>
<path d="M8157 3348 c-2 -7 0 -21 5 -31 9 -18 11 -18 29 -1 14 13 16 20 8 31
-14 16 -36 17 -42 1z"/>
<path d="M845 3333 c-19 -19 -19 -40 1 -51 21 -12 61 -4 68 14 6 15 -2 44 -13
45 -3 0 -14 2 -24 4 -9 2 -24 -3 -32 -12z"/>
<path d="M537 3319 c-11 -41 14 -64 41 -37 16 16 15 23 -4 42 -21 21 -31 20
-37 -5z"/>
<path d="M8334 3319 c-8 -14 11 -33 25 -25 6 4 11 14 11 22 0 16 -26 19 -36 3z"/>
<path d="M695 3299 c-8 -25 7 -44 30 -36 22 9 31 37 14 48 -23 14 -37 10 -44
-12z"/>
<path d="M310 3291 c0 -6 5 -13 10 -16 6 -3 10 1 10 9 0 9 -4 16 -10 16 -5 0
-10 -4 -10 -9z"/>
<path d="M8005 3270 c-9 -14 3 -47 19 -53 8 -3 22 0 31 7 14 10 15 16 6 34
-12 23 -45 30 -56 12z"/>
<path d="M8157 3229 c-19 -11 -23 -44 -7 -54 17 -11 50 5 50 24 0 27 -21 42
-43 30z"/>
<path d="M918 3209 c-20 -11 -24 -44 -7 -54 16 -11 56 3 63 21 7 18 -10 44
-28 44 -6 0 -19 -5 -28 -11z"/>
<path d="M8620 3210 c0 -5 7 -10 15 -10 8 0 15 5 15 10 0 6 -7 10 -15 10 -8 0
-15 -4 -15 -10z"/>
<path d="M607 3203 c-12 -12 -7 -41 7 -46 19 -8 38 16 30 37 -6 16 -25 21 -37
9z"/>
<path d="M783 3193 c-17 -6 -17 -59 0 -66 24 -9 50 20 43 47 -6 25 -17 30 -43
19z"/>
<path d="M8313 3183 c-24 -9 -14 -33 13 -33 18 0 25 5 22 17 -3 18 -16 24 -35
16z"/>
<path d="M7970 3145 c-20 -24 -4 -65 25 -65 37 0 51 34 25 60 -24 24 -33 25
-50 5z"/>
<path d="M950 3115 c-14 -17 -5 -51 15 -59 44 -17 64 42 21 62 -19 8 -27 8
-36 -3z"/>
<path d="M497 3094 c-13 -13 -7 -24 14 -24 11 0 19 5 17 12 -5 14 -22 21 -31
12z"/>
<path d="M806 3084 c-18 -17 -11 -41 16 -55 29 -16 50 5 36 36 -14 31 -34 38
-52 19z"/>
<path d="M8117 3073 c-23 -22 14 -53 39 -32 11 9 11 15 3 25 -12 15 -31 18
-42 7z"/>
<path d="M8376 3065 c-6 -17 16 -31 33 -21 13 9 2 36 -14 36 -7 0 -16 -7 -19
-15z"/>
<path d="M637 3063 c-14 -13 -6 -33 13 -33 11 0 20 4 20 9 0 13 -26 32 -33 24z"/>
<path d="M562 3021 c-10 -6 -9 -11 3 -21 11 -9 19 -10 26 -3 13 13 -12 35 -29
24z"/>
<path d="M7928 3016 c-14 -10 -15 -16 -4 -37 8 -16 19 -23 32 -21 25 5 35 22
24 43 -13 23 -33 29 -52 15z"/>
<path d="M966 2979 c-11 -17 -12 -25 -3 -40 12 -20 25 -23 51 -13 21 8 21 60
0 68 -25 10 -32 7 -48 -15z"/>
<path d="M8171 2977 c-16 -16 -13 -47 5 -54 20 -7 45 22 38 42 -8 19 -30 25
-43 12z"/>
<path d="M673 2963 c-20 -7 -15 -30 9 -47 23 -16 37 -8 38 21 0 15 -31 32 -47
26z"/>
<path d="M846 2938 c-9 -12 -16 -28 -16 -35 0 -17 36 -26 60 -13 22 12 17 34
-14 59 -11 10 -17 8 -30 -11z"/>
<path d="M8023 2944 c-3 -8 -1 -20 6 -27 14 -14 47 15 37 32 -10 16 -36 13
-43 -5z"/>
<path d="M7873 2904 c-14 -37 38 -69 57 -34 7 13 5 22 -9 34 -23 20 -40 20
-48 0z"/>
<path d="M1010 2861 c-14 -27 -2 -51 24 -51 35 0 49 15 42 44 -8 32 -50 36
-66 7z"/>
<path d="M544 2849 c-9 -15 11 -33 30 -26 9 4 13 13 10 22 -7 17 -30 20 -40 4z"/>
<path d="M717 2841 c-7 -28 9 -48 29 -36 23 15 23 25 -2 42 -19 12 -22 12 -27
-6z"/>
<path d="M8013 2838 c-16 -22 -9 -43 15 -46 12 -2 23 0 23 5 7 43 5 53 -11 53
-10 0 -22 -6 -27 -12z"/>
<path d="M8327 2834 c-15 -15 -7 -44 13 -44 11 0 20 4 20 8 0 15 -26 43 -33
36z"/>
<path d="M895 2820 c-10 -16 4 -47 20 -47 16 0 30 31 20 47 -3 5 -12 10 -20
10 -8 0 -17 -5 -20 -10z"/>
<path d="M8142 2818 c-17 -21 3 -46 25 -32 10 6 18 17 18 25 0 19 -29 23 -43
7z"/>
<path d="M7842 2808 c-7 -7 -12 -22 -12 -34 0 -29 40 -40 58 -17 15 21 12 32
-14 50 -16 10 -23 10 -32 1z"/>
<path d="M1067 2768 c-33 -18 -10 -69 28 -63 44 7 57 33 29 56 -21 17 -36 19
-57 7z"/>
<path d="M510 2760 c0 -5 7 -10 15 -10 8 0 15 5 15 10 0 6 -7 10 -15 10 -8 0
-15 -4 -15 -10z"/>
<path d="M834 2722 c-21 -14 -24 -42 -4 -52 14 -7 23 -6 34 6 18 17 19 24 8
39 -9 13 -25 16 -38 7z"/>
<path d="M690 2701 c0 -23 8 -31 25 -24 16 6 9 29 -11 37 -9 3 -14 -1 -14 -13z"/>
<path d="M930 2690 c0 -27 3 -31 23 -28 16 2 22 10 22 28 0 18 -6 26 -22 28
-20 3 -23 -1 -23 -28z"/>
<path d="M7904 2706 c-3 -8 -4 -23 -2 -33 5 -25 51 -25 56 0 7 36 -42 65 -54
33z"/>
<path d="M7765 2694 c-25 -25 -15 -58 18 -62 35 -4 53 33 29 61 -19 21 -26 21
-47 1z"/>
<path d="M8191 2676 c-11 -14 -5 -46 9 -46 15 0 32 30 26 45 -7 19 -20 19 -35
1z"/>
<path d="M1135 2654 c-11 -8 -18 -18 -17 -22 17 -34 25 -42 40 -42 38 0 53 37
26 64 -19 19 -24 19 -49 0z"/>
<path d="M8087 2664 c-8 -8 1 -24 14 -24 5 0 9 7 9 15 0 15 -12 20 -23 9z"/>
<path d="M990 2610 c-9 -16 -6 -22 15 -36 24 -15 28 -16 42 -2 12 12 13 20 4
37 -15 26 -47 27 -61 1z"/>
<path d="M8460 2610 c0 -19 3 -21 12 -12 9 9 9 15 0 24 -9 9 -12 7 -12 -12z"/>
<path d="M7723 2593 c-20 -7 -15 -51 7 -63 14 -7 25 -7 38 1 34 21 -6 75 -45
62z"/>
<path d="M596 2582 c-3 -6 1 -15 8 -21 8 -7 17 -8 20 -3 3 6 -1 15 -8 21 -8 7
-17 8 -20 3z"/>
<path d="M880 2561 c0 -26 17 -36 36 -21 11 10 12 16 3 26 -17 20 -39 17 -39
-5z"/>
<path d="M7867 2573 c-14 -13 -6 -41 12 -46 26 -7 56 24 39 41 -13 13 -41 16
-51 5z"/>
<path d="M7996 2571 c-9 -14 4 -41 19 -41 21 0 28 19 15 35 -14 17 -26 19 -34
6z"/>
<path d="M1203 2558 c-27 -35 11 -72 42 -41 18 18 19 25 3 41 -15 15 -33 15
-45 0z"/>
<path d="M1057 2513 c-19 -18 14 -54 43 -46 21 6 24 12 14 37 -6 16 -45 22
-57 9z"/>
<path d="M7780 2481 c-14 -27 -2 -51 25 -51 32 0 45 38 19 57 -24 18 -31 17
-44 -6z"/>
<path d="M1282 2483 c-18 -7 -33 -39 -26 -57 8 -21 48 -21 68 0 25 25 -7 69
-42 57z"/>
<path d="M822 2463 c2 -10 10 -18 18 -18 22 0 18 29 -3 33 -14 3 -18 -1 -15
-15z"/>
<path d="M7648 2463 c-24 -6 -24 -50 1 -58 24 -7 51 3 51 20 0 11 -28 48 -33
44 -1 -1 -10 -3 -19 -6z"/>
<path d="M958 2453 c-28 -7 -22 -42 8 -49 14 -4 30 -2 35 3 14 14 -22 51 -43
46z"/>
<path d="M7940 2441 c-14 -27 -2 -51 26 -51 19 0 24 5 24 25 0 34 -35 53 -50
26z"/>
<path d="M8135 2440 c-3 -5 1 -10 9 -10 9 0 16 5 16 10 0 6 -4 10 -9 10 -6 0
-13 -4 -16 -10z"/>
<path d="M1112 2398 c-29 -29 3 -87 38 -68 28 15 32 38 10 60 -23 23 -31 25
-48 8z"/>
<path d="M1326 2378 c-13 -19 -14 -25 -2 -43 18 -26 40 -30 60 -9 25 25 5 73
-31 74 -6 0 -19 -10 -27 -22z"/>
<path d="M780 2375 c0 -8 7 -15 15 -15 8 0 15 7 15 15 0 8 -7 15 -15 15 -8 0
-15 -7 -15 -15z"/>
<path d="M7708 2372 c-23 -28 -17 -47 17 -47 23 0 31 5 33 22 5 31 -30 49 -50
25z"/>
<path d="M7570 2341 c-7 -15 -6 -23 6 -35 19 -20 19 -20 38 0 18 17 14 29 -14
44 -15 8 -21 6 -30 -9z"/>
<path d="M7875 2352 c-12 -12 -4 -50 10 -48 23 3 36 21 30 38 -6 14 -30 20
-40 10z"/>
<path d="M992 2308 c-30 -30 9 -69 44 -44 18 14 18 15 0 35 -22 24 -28 25 -44
9z"/>
<path d="M8197 2314 c-14 -14 -7 -35 11 -32 9 2 17 10 17 17 0 16 -18 25 -28
15z"/>
<path d="M1190 2291 c-15 -28 -13 -39 10 -46 26 -8 60 11 60 34 0 34 -53 42
-70 12z"/>
<path d="M8020 2293 c0 -25 15 -38 25 -22 4 6 0 18 -9 27 -15 15 -16 15 -16
-5z"/>
<path d="M876 2293 c-10 -11 -6 -40 7 -51 19 -16 40 1 33 26 -7 21 -30 35 -40
25z"/>
<path d="M1415 2266 c-37 -27 4 -94 43 -70 17 11 30 73 15 75 -4 0 -16 2 -25
4 -9 2 -24 -2 -33 -9z"/>
<path d="M7798 2249 c-23 -13 -23 -46 1 -58 15 -8 21 -5 31 15 12 21 11 27 -1
39 -10 10 -19 11 -31 4z"/>
<path d="M7653 2233 c-18 -6 -16 -50 1 -56 21 -8 48 16 41 35 -7 19 -24 27
-42 21z"/>
<path d="M7483 2212 c-3 -9 -7 -19 -9 -22 -1 -3 4 -13 11 -23 10 -14 18 -16
39 -7 30 11 34 31 10 51 -24 19 -44 20 -51 1z"/>
<path d="M1116 2198 c-11 -15 -12 -25 -5 -34 13 -15 38 -12 50 7 13 21 11 27
-10 39 -16 8 -23 6 -35 -12z"/>
<path d="M8097 2195 c-8 -18 11 -31 25 -17 11 11 3 32 -12 32 -4 0 -10 -7 -13
-15z"/>
<path d="M1249 2184 c-18 -22 -19 -41 -4 -54 17 -14 51 -5 59 16 12 32 -34 64
-55 38z"/>
<path d="M7927 2156 c-7 -16 1 -26 20 -26 7 0 13 9 13 20 0 23 -25 27 -33 6z"/>
<path d="M1459 2129 c-14 -27 -11 -47 11 -59 15 -8 23 -6 40 12 23 25 25 35 7
52 -18 18 -47 16 -58 -5z"/>
<path d="M7414 2126 c-16 -43 19 -71 50 -40 16 15 16 18 0 35 -20 23 -42 25
-50 5z"/>
<path d="M730 2101 c0 -5 5 -13 10 -16 6 -3 10 -2 10 4 0 5 -4 13 -10 16 -5 3
-10 2 -10 -4z"/>
<path d="M1170 2090 c-8 -14 -8 -26 0 -40 12 -23 15 -24 41 -10 23 13 24 33 3
54 -21 21 -31 20 -44 -4z"/>
<path d="M7581 2101 c-10 -6 -9 -12 4 -25 18 -17 35 -13 35 9 0 16 -23 26 -39
16z"/>
<path d="M1343 2078 c-14 -23 -13 -46 2 -52 36 -13 65 23 39 49 -19 18 -30 19
-41 3z"/>
<path d="M1033 2063 c-7 -2 -9 -11 -6 -19 6 -16 29 -19 37 -5 8 12 -16 30 -31
24z"/>
<path d="M856 2051 c-9 -14 4 -41 20 -41 8 0 14 10 14 25 0 25 -23 35 -34 16z"/>
<path d="M1565 2040 c-8 -25 3 -60 18 -60 19 1 52 24 55 39 8 38 -61 58 -73
21z"/>
<path d="M7477 2043 c-11 -10 -8 -43 3 -44 36 -5 45 -2 48 15 5 26 -33 48 -51
29z"/>
<path d="M7810 2035 c-9 -11 -10 -19 -3 -26 13 -13 35 12 24 29 -6 10 -11 9
-21 -3z"/>
<path d="M7320 2021 c-12 -23 14 -56 37 -47 8 3 16 6 18 6 2 0 -1 14 -6 30
-12 34 -34 39 -49 11z"/>
<path d="M1448 1999 c-24 -13 -23 -56 1 -64 44 -14 68 26 35 59 -8 9 -16 16
-17 16 -1 0 -10 -5 -19 -11z"/>
<path d="M7675 2001 c-3 -5 -1 -12 4 -15 13 -8 42 4 35 15 -7 12 -31 12 -39 0z"/>
<path d="M8010 1995 c0 -9 5 -15 11 -13 6 2 11 8 11 13 0 5 -5 11 -11 13 -6 2
-11 -4 -11 -13z"/>
<path d="M1271 1987 c-17 -17 -13 -35 8 -47 23 -12 54 12 45 34 -7 19 -40 26
-53 13z"/>
<path d="M1114 1972 c-13 -9 -12 -28 3 -43 10 -10 15 -9 27 0 24 20 -5 60 -30
43z"/>
<path d="M1646 1964 c-20 -20 -20 -38 0 -58 18 -19 47 -8 64 24 8 15 6 22 -12
34 -28 20 -33 20 -52 0z"/>
<path d="M7242 1931 c-3 -36 9 -45 41 -30 17 8 23 17 19 28 -15 41 -57 42 -60
2z"/>
<path d="M7389 1938 c-14 -25 -5 -48 19 -48 43 0 52 53 11 63 -13 3 -23 -2
-30 -15z"/>
<path d="M1007 1907 c-6 -17 4 -33 21 -31 6 1 17 2 24 3 7 1 4 9 -7 21 -21 23
-31 25 -38 7z"/>
<path d="M7571 1887 c-17 -17 -13 -47 7 -47 27 0 43 15 37 33 -9 21 -30 28
-44 14z"/>
<path d="M1536 1877 c-15 -11 -17 -17 -7 -35 15 -28 32 -28 49 -1 10 16 10 24
1 35 -14 17 -20 18 -43 1z"/>
<path d="M1200 1865 c-17 -20 3 -45 31 -38 27 8 32 19 13 37 -19 20 -28 20
-44 1z"/>
<path d="M1357 1873 c-12 -11 -8 -40 8 -53 17 -14 55 -4 55 15 0 29 -45 56
-63 38z"/>
<path d="M1756 1871 c-24 -9 -31 -54 -11 -71 18 -15 40 -8 54 19 15 26 -15 63
-43 52z"/>
<path d="M7162 1868 c-18 -18 -15 -46 6 -57 35 -18 63 26 33 53 -21 19 -24 19
-39 4z"/>
<path d="M725 1850 c3 -5 11 -10 16 -10 6 0 7 5 4 10 -3 6 -11 10 -16 10 -6 0
-7 -4 -4 -10z"/>
<path d="M7683 1853 c-7 -3 -13 -14 -13 -25 0 -14 5 -18 16 -14 9 3 18 6 20 6
7 0 4 29 -3 33 -5 2 -14 2 -20 0z"/>
<path d="M7313 1843 c-7 -2 -13 -16 -13 -29 0 -20 5 -24 31 -24 24 0 30 3 25
16 -3 9 -6 22 -6 30 0 14 -14 17 -37 7z"/>
<path d="M1592 1799 c-7 -10 -9 -25 -6 -34 8 -19 48 -20 64 0 10 13 10 19 -4
34 -21 23 -40 23 -54 0z"/>
<path d="M7432 1773 c-12 -24 -4 -43 17 -43 27 0 42 20 30 42 -12 23 -36 23
-47 1z"/>
<path d="M890 1760 c0 -13 5 -18 14 -14 8 3 12 12 9 20 -8 21 -23 17 -23 -6z"/>
<path d="M1827 1773 c-4 -3 -7 -19 -7 -34 0 -35 31 -44 59 -17 17 15 19 23 11
38 -10 19 -49 27 -63 13z"/>
<path d="M1292 1738 c-18 -18 -15 -36 8 -48 15 -8 21 -6 29 9 14 24 -18 58
-37 39z"/>
<path d="M1460 1730 c-14 -27 4 -52 34 -48 28 4 27 36 -1 55 -20 13 -23 13
-33 -7z"/>
<path d="M7061 1732 c-13 -25 9 -53 37 -45 24 6 27 15 12 44 -13 24 -36 25
-49 1z"/>
<path d="M7262 1738 c-30 -30 1 -68 42 -52 24 9 4 63 -24 64 -4 0 -11 -5 -18
-12z"/>
<path d="M7628 1728 c-8 -20 5 -39 20 -29 9 6 9 11 -1 25 -12 16 -15 16 -19 4z"/>
<path d="M1115 1711 c-7 -12 24 -43 36 -36 14 10 10 32 -7 39 -20 8 -22 8 -29
-3z"/>
<path d="M7365 1699 c-12 -36 36 -54 53 -21 13 25 4 42 -23 42 -15 0 -26 -8
-30 -21z"/>
<path d="M1701 1688 c-5 -14 -5 -28 1 -35 25 -31 82 2 61 35 -16 27 -52 27
-62 0z"/>
<path d="M1909 1673 c-34 -8 -24 -73 11 -73 14 0 40 30 40 45 0 17 -29 33 -51
28z"/>
<path d="M6980 1665 c-18 -22 -8 -50 19 -50 17 0 25 6 27 22 5 29 -28 49 -46
28z"/>
<path d="M1554 1635 c-8 -21 3 -45 20 -45 16 0 31 34 21 50 -9 15 -35 12 -41
-5z"/>
<path d="M2011 1619 c-26 -24 -24 -46 4 -65 28 -18 71 12 60 44 -11 36 -39 44
-64 21z"/>
<path d="M7142 1618 c-17 -17 -15 -45 4 -52 21 -8 20 -8 38 10 12 12 13 20 6
35 -12 22 -30 25 -48 7z"/>
<path d="M1373 1604 c-7 -19 11 -39 26 -30 16 10 13 33 -4 40 -9 3 -18 -1 -22
-10z"/>
<path d="M7507 1603 c-14 -13 -6 -33 12 -33 19 0 35 23 24 34 -8 8 -28 8 -36
-1z"/>
<path d="M1765 1580 c-7 -23 10 -50 31 -50 21 0 38 38 23 56 -17 21 -47 17
-54 -6z"/>
<path d="M6886 1585 c-5 -14 1 -45 9 -45 2 0 15 4 30 10 22 8 24 13 15 30 -13
23 -45 27 -54 5z"/>
<path d="M7645 1589 c-4 -6 -5 -13 -2 -16 7 -7 27 6 27 18 0 12 -17 12 -25 -2z"/>
<path d="M1632 1553 c2 -10 10 -18 18 -18 8 0 16 8 18 18 2 12 -3 17 -18 17
-15 0 -20 -5 -18 -17z"/>
<path d="M7022 1558 c-13 -13 -16 -48 -4 -49 4 0 14 -2 22 -4 27 -5 40 20 24
44 -17 24 -25 26 -42 9z"/>
<path d="M7800 1560 c0 -5 5 -10 10 -10 6 0 10 5 10 10 0 6 -4 10 -10 10 -5 0
-10 -4 -10 -10z"/>
<path d="M7296 1544 c-3 -8 1 -14 9 -14 20 0 28 17 11 23 -8 3 -17 -1 -20 -9z"/>
<path d="M2114 1542 c-19 -13 -23 -40 -9 -59 13 -17 16 -17 42 -2 37 20 29 69
-12 69 -5 0 -15 -4 -21 -8z"/>
<path d="M1274 1519 c-8 -14 11 -33 25 -25 16 10 13 36 -3 36 -8 0 -18 -5 -22
-11z"/>
<path d="M1494 1515 c-7 -18 3 -35 21 -35 18 0 26 25 12 39 -15 15 -27 14 -33
-4z"/>
<path d="M7396 1505 c-3 -9 0 -15 9 -15 16 0 20 16 6 24 -5 3 -11 -1 -15 -9z"/>
<path d="M1882 1498 c-19 -19 -14 -45 10 -62 20 -14 24 -14 40 1 22 20 23 37
2 57 -19 19 -36 20 -52 4z"/>
<path d="M6775 1494 c-19 -19 -19 -29 1 -48 19 -19 26 -20 42 -4 18 18 15 42
-8 55 -15 10 -22 10 -35 -3z"/>
<path d="M7182 1478 c-17 -17 -15 -36 7 -47 25 -14 50 13 35 37 -14 21 -27 25
-42 10z"/>
<path d="M1726 1457 c-16 -12 -12 -57 4 -57 23 0 40 15 40 35 0 27 -22 38 -44
22z"/>
<path d="M7530 1455 c0 -8 4 -15 9 -15 5 0 11 7 15 15 3 9 0 15 -9 15 -8 0
-15 -7 -15 -15z"/>
<path d="M2238 1453 c-23 -6 -34 -49 -18 -68 28 -34 92 0 76 40 -7 18 -37 32
-58 28z"/>
<path d="M6956 1437 c-22 -16 -11 -48 15 -44 31 5 44 24 29 42 -15 18 -21 19
-44 2z"/>
<path d="M7085 1424 c-16 -17 -16 -18 0 -30 33 -24 62 9 31 35 -11 9 -18 8
-31 -5z"/>
<path d="M7276 1424 c-11 -11 -14 -20 -8 -26 16 -16 47 -5 47 16 0 26 -19 31
-39 10z"/>
<path d="M6660 1415 c-26 -31 21 -66 56 -41 13 10 14 17 5 34 -14 25 -43 29
-61 7z"/>
<path d="M2003 1409 c-18 -18 5 -59 33 -59 31 0 43 38 18 57 -22 16 -36 17
-51 2z"/>
<path d="M7485 1400 c-3 -5 1 -10 9 -10 9 0 16 5 16 10 0 6 -4 10 -9 10 -6 0
-13 -4 -16 -10z"/>
<path d="M1360 1365 c-9 -11 -7 -16 8 -24 15 -8 23 -7 32 4 9 11 7 16 -8 24
-15 8 -23 7 -32 -4z"/>
<path d="M2328 1369 c-11 -6 -18 -22 -18 -39 0 -24 5 -31 27 -36 28 -7 56 17
51 45 -5 23 -41 41 -60 30z"/>
<path d="M6842 1363 c-13 -25 -4 -43 22 -43 28 0 32 36 6 50 -15 8 -21 6 -28
-7z"/>
<path d="M1590 1350 c0 -15 5 -20 18 -18 9 2 17 10 17 18 0 8 -8 16 -17 18
-13 2 -18 -3 -18 -18z"/>
<path d="M1812 1358 c-15 -15 -15 -35 -2 -43 15 -10 50 5 50 20 0 21 -34 37
-48 23z"/>
<path d="M2113 1354 c-33 -14 -2 -69 34 -62 27 5 25 62 -2 65 -11 1 -26 -1
-32 -3z"/>
<path d="M6563 1338 c-16 -27 -13 -49 10 -57 40 -16 63 22 31 53 -19 19 -30
20 -41 4z"/>
<path d="M7247 1319 c-3 -13 0 -22 10 -26 17 -7 34 14 26 34 -8 20 -30 16 -36
-8z"/>
<path d="M6962 1306 c-12 -27 -7 -36 18 -36 24 0 42 24 34 44 -9 24 -39 19
-52 -8z"/>
<path d="M1728 1313 c-5 -26 -2 -39 12 -44 24 -10 42 9 29 32 -9 19 -37 26
-41 12z"/>
<path d="M2202 1279 c-16 -25 -5 -48 25 -55 26 -7 43 7 43 37 0 36 -49 49 -68
18z"/>
<path d="M6750 1282 c-31 -25 -21 -55 17 -50 32 3 43 37 20 57 -11 9 -19 7
-37 -7z"/>
<path d="M2432 1282 c-19 -13 -23 -49 -6 -63 25 -21 66 5 62 39 -3 28 -31 40
-56 24z"/>
<path d="M1945 1260 c-8 -26 6 -43 31 -38 13 2 19 12 19 28 0 34 -40 41 -50
10z"/>
<path d="M6466 1261 c-16 -17 -16 -20 -1 -35 18 -18 25 -19 49 -10 19 7 21 35
4 52 -17 17 -32 15 -52 -7z"/>
<path d="M7094 1239 c-10 -17 13 -36 27 -22 12 12 4 33 -11 33 -5 0 -12 -5
-16 -11z"/>
<path d="M1833 1224 c-7 -20 11 -38 31 -31 23 9 20 34 -5 40 -13 3 -22 0 -26
-9z"/>
<path d="M6612 1218 c-17 -17 -15 -35 5 -46 21 -12 46 10 41 35 -4 22 -29 28
-46 11z"/>
<path d="M2047 1207 c-15 -10 -16 -15 -5 -30 8 -11 20 -16 30 -12 22 9 32 36
16 47 -17 10 -21 10 -41 -5z"/>
<path d="M2538 1209 c-38 -22 -6 -89 33 -69 24 13 26 65 3 74 -19 7 -15 8 -36
-5z"/>
<path d="M6351 1196 c-16 -20 -3 -46 24 -46 13 0 26 7 29 16 7 19 -10 44 -29
44 -7 0 -18 -6 -24 -14z"/>
<path d="M2347 1193 c-14 -13 -6 -41 13 -46 23 -6 45 16 36 38 -5 15 -37 21
-49 8z"/>
<path d="M6846 1184 c-8 -21 1 -34 24 -34 22 0 35 30 18 42 -20 12 -35 9 -42
-8z"/>
<path d="M2649 1156 c-41 -30 -24 -80 25 -74 36 4 55 31 40 55 -14 23 -47 33
-65 19z"/>
<path d="M1690 1135 c0 -15 6 -25 14 -25 23 0 28 17 10 34 -21 21 -24 20 -24
-9z"/>
<path d="M6217 1145 c-33 -32 13 -84 48 -55 16 14 21 60 6 60 -5 0 -16 3 -24
6 -8 3 -22 -2 -30 -11z"/>
<path d="M6706 1134 c-8 -20 -7 -21 19 -26 14 -2 20 3 20 17 0 25 -30 32 -39
9z"/>
<path d="M6495 1120 c-8 -26 6 -43 31 -38 13 2 19 12 19 28 0 34 -40 41 -50
10z"/>
<path d="M2199 1123 c-3 -20 4 -49 14 -55 26 -16 56 24 36 48 -12 15 -48 19
-50 7z"/>
<path d="M6990 1110 c0 -22 1 -23 24 -14 18 7 10 34 -10 34 -8 0 -14 -9 -14
-20z"/>
<path d="M2441 1092 c-13 -25 4 -62 29 -62 26 0 49 45 32 62 -19 19 -51 19
-61 0z"/>
<path d="M2738 1088 c-3 -7 -2 -23 0 -36 4 -19 10 -23 36 -20 24 2 32 8 34 27
2 13 -2 28 -10 32 -19 13 -56 11 -60 -3z"/>
<path d="M6122 1091 c-21 -13 -11 -55 15 -59 26 -4 41 31 23 53 -14 17 -20 18
-38 6z"/>
<path d="M7081 1086 c-7 -8 -10 -19 -7 -25 9 -15 47 0 44 17 -4 22 -23 25 -37
8z"/>
<path d="M6389 1074 c-9 -11 -10 -20 -2 -32 23 -37 73 -19 53 19 -14 24 -37
30 -51 13z"/>
<path d="M2553 1061 c-18 -29 6 -56 40 -47 20 5 26 12 24 27 -6 38 -45 50 -64
20z"/>
<path d="M6611 1071 c-20 -13 -9 -46 17 -49 16 -3 22 2 22 16 0 25 -22 43 -39
33z"/>
<path d="M2871 1047 c-19 -19 -12 -43 14 -55 32 -15 31 -15 48 3 14 14 13 53
-2 56 -29 6 -51 5 -60 -4z"/>
<path d="M2332 1041 c-17 -10 -16 -17 0 -35 11 -12 16 -12 30 1 29 26 3 56
-30 34z"/>
<path d="M2043 1024 c-4 -11 1 -22 13 -31 16 -12 20 -11 31 3 9 13 10 21 2 31
-16 18 -38 16 -46 -3z"/>
<path d="M6006 1025 c-13 -13 -13 -20 -3 -36 17 -28 61 -22 65 10 6 38 -33 54
-62 26z"/>
<path d="M2666 1015 c-18 -18 -13 -36 15 -53 17 -11 25 -11 44 2 28 19 24 51
-8 60 -31 8 -34 8 -51 -9z"/>
<path d="M6870 1010 c0 -11 7 -23 16 -27 20 -8 36 17 22 34 -16 20 -38 15 -38
-7z"/>
<path d="M6256 1007 c-23 -17 -11 -47 20 -47 29 0 41 24 24 45 -15 18 -21 19
-44 2z"/>
<path d="M1914 988 c-4 -5 -1 -14 7 -18 14 -9 29 -4 29 10 0 13 -29 20 -36 8z"/>
<path d="M2463 983 c-18 -7 -16 -42 2 -49 27 -11 45 3 36 28 -9 24 -19 29 -38
21z"/>
<path d="M5895 976 c-10 -7 -19 -20 -21 -28 -2 -18 38 -40 53 -30 17 12 24 44
12 58 -14 17 -20 17 -44 0z"/>
<path d="M2152 972 c-10 -7 -8 -13 7 -26 21 -19 37 -7 27 19 -6 17 -15 18 -34
7z"/>
<path d="M2982 971 c-8 -4 -12 -19 -10 -32 2 -19 9 -24 32 -24 39 0 59 31 32
51 -23 16 -35 17 -54 5z"/>
<path d="M7037 974 c-4 -4 -7 -14 -7 -23 0 -11 3 -12 11 -4 6 6 10 16 7 23 -2
6 -7 8 -11 4z"/>
<path d="M6499 954 c-10 -13 -10 -17 2 -25 20 -13 27 -11 38 10 17 31 -16 44
-40 15z"/>
<path d="M2777 946 c-9 -22 22 -58 46 -54 26 4 36 46 15 59 -20 13 -55 11 -61
-5z"/>
<path d="M6735 950 c-8 -13 4 -32 18 -27 16 5 17 37 2 37 -8 0 -17 -4 -20 -10z"/>
<path d="M3118 931 c-19 -16 -21 -23 -12 -47 15 -44 64 -31 69 19 4 36 -27 51
-57 28z"/>
<path d="M5780 931 c-15 -30 -12 -38 16 -45 36 -9 51 6 36 39 -14 30 -37 33
-52 6z"/>
<path d="M6158 943 c-21 -5 -25 -52 -5 -55 35 -4 43 -2 48 12 7 16 -7 51 -19
49 -4 -1 -15 -3 -24 -6z"/>
<path d="M6366 927 c-15 -11 -16 -15 -4 -24 19 -16 43 0 31 21 -7 14 -12 14
-27 3z"/>
<path d="M6651 911 c-17 -32 7 -42 34 -15 13 14 14 19 3 25 -19 13 -26 11 -37
-10z"/>
<path d="M2590 895 c0 -31 26 -43 47 -22 21 21 9 47 -22 47 -20 0 -25 -5 -25
-25z"/>
<path d="M3237 892 c-13 -14 -14 -22 -4 -41 13 -27 41 -35 55 -18 19 25 21 47
6 62 -20 20 -37 19 -57 -3z"/>
<path d="M6037 889 c-9 -6 -17 -19 -17 -29 0 -16 7 -20 30 -20 23 0 30 5 30
19 0 27 -21 42 -43 30z"/>
<path d="M6936 885 c-3 -8 -1 -15 4 -15 6 0 10 7 10 15 0 8 -2 15 -4 15 -2 0
-6 -7 -10 -15z"/>
<path d="M2217 876 c-10 -24 18 -39 37 -21 9 9 16 21 16 26 0 15 -47 10 -53
-5z"/>
<path d="M3377 883 c-12 -3 -16 -12 -14 -31 7 -49 67 -58 67 -9 0 22 -17 48
-29 46 -4 -1 -14 -3 -24 -6z"/>
<path d="M5639 863 c-7 -20 -6 -28 3 -35 39 -24 87 7 67 44 -15 28 -58 23 -70
-9z"/>
<path d="M2904 872 c-17 -12 -24 -41 -11 -49 21 -13 35 -11 52 7 28 31 -6 66
-41 42z"/>
<path d="M6766 861 c-20 -22 -7 -36 17 -18 10 7 13 17 9 25 -7 10 -13 8 -26
-7z"/>
<path d="M6290 855 c-15 -17 -5 -35 20 -35 19 0 30 17 23 38 -6 16 -28 15 -43
-3z"/>
<path d="M5511 846 c-16 -19 2 -56 28 -56 28 0 47 28 34 48 -13 22 -47 27 -62
8z"/>
<path d="M2435 834 c-13 -14 -14 -19 -3 -25 20 -13 45 -10 52 6 9 24 -29 38
-49 19z"/>
<path d="M3030 816 c0 -25 30 -43 50 -31 16 10 12 42 -6 49 -31 12 -44 6 -44
-18z"/>
<path d="M3471 821 c-12 -21 2 -44 32 -54 20 -8 43 32 34 57 -9 22 -54 20 -66
-3z"/>
<path d="M5410 815 c-17 -20 -8 -49 16 -53 27 -4 39 32 17 53 -18 18 -18 18
-33 0z"/>
<path d="M5917 823 c-12 -11 -7 -53 6 -53 31 1 56 44 31 54 -20 8 -29 8 -37
-1z"/>
<path d="M3615 804 c-32 -33 4 -94 39 -65 22 18 20 58 -3 71 -15 7 -24 6 -36
-6z"/>
<path d="M2788 799 c-22 -12 -23 -23 -3 -43 26 -26 62 3 49 39 -7 17 -22 19
-46 4z"/>
<path d="M6141 796 c-9 -10 -8 -15 3 -19 16 -7 26 1 26 20 0 17 -14 17 -29 -1z"/>
<path d="M6445 801 c-6 -11 9 -23 19 -14 9 9 7 23 -3 23 -6 0 -12 -4 -16 -9z"/>
<path d="M5310 790 c-22 -14 -19 -47 6 -59 18 -8 27 -7 39 5 17 17 18 24 7 40
-11 16 -37 23 -52 14z"/>
<path d="M2645 781 c-6 -11 29 -34 38 -25 3 3 3 12 0 20 -6 16 -29 19 -38 5z"/>
<path d="M5771 777 c-15 -19 10 -53 33 -44 23 9 21 57 -3 57 -10 0 -24 -6 -30
-13z"/>
<path d="M3266 761 c-20 -22 -12 -47 17 -55 45 -12 65 49 20 65 -15 5 -26 3
-37 -10z"/>
<path d="M3173 763 c-17 -6 -16 -38 1 -52 18 -15 46 -3 46 20 0 20 -28 39 -47
32z"/>
<path d="M3753 762 c-26 -4 -33 -20 -22 -50 16 -43 55 -40 63 5 6 28 -14 50
-41 45z"/>
<path d="M5182 757 c-26 -12 -27 -44 -1 -60 24 -15 49 -1 49 26 0 34 -19 47
-48 34z"/>
<path d="M5656 752 c-15 -18 -15 -20 4 -37 11 -10 21 -16 23 -14 1 2 9 12 16
22 11 14 11 20 1 32 -16 19 -23 19 -44 -3z"/>
<path d="M2524 734 c3 -9 6 -18 6 -20 0 -11 29 -2 33 10 7 18 -1 26 -26 26
-13 0 -17 -5 -13 -16z"/>
<path d="M3874 740 c-26 -10 -27 -48 -1 -64 22 -14 51 3 55 32 4 26 -25 43
-54 32z"/>
<path d="M5518 739 c-37 -21 -4 -78 33 -59 21 12 25 40 7 58 -14 14 -18 14
-40 1z"/>
<path d="M3436 721 c-34 -37 -8 -70 37 -48 18 8 21 49 3 47 -5 -1 -12 3 -16 9
-4 8 -12 5 -24 -8z"/>
<path d="M5043 733 c-7 -2 -13 -17 -13 -33 0 -45 55 -49 66 -4 10 38 -13 54
-53 37z"/>
<path d="M2911 716 c-23 -27 17 -68 45 -45 13 11 8 39 -10 51 -16 11 -22 10
-35 -6z"/>
<path d="M4000 713 c-24 -9 -29 -24 -17 -50 13 -28 43 -30 57 -3 8 14 8 26 0
40 -11 21 -15 22 -40 13z"/>
<path d="M4900 701 c-10 -20 -4 -51 10 -51 5 0 15 -2 22 -5 20 -8 39 36 26 58
-12 23 -45 21 -58 -2z"/>
<path d="M6202 708 c-17 -17 -15 -25 8 -31 26 -7 37 11 18 29 -11 11 -16 12
-26 2z"/>
<path d="M4100 695 c-18 -22 2 -65 30 -65 23 0 46 40 37 64 -8 20 -51 21 -67
1z"/>
<path d="M4268 703 c-23 -6 -24 -46 -2 -67 20 -21 27 -20 49 4 17 18 17 21 1
45 -9 14 -20 24 -24 24 -4 -1 -15 -3 -24 -6z"/>
<path d="M5994 695 c-4 -10 -1 -21 7 -26 20 -12 34 -5 34 17 0 24 -33 31 -41
9z"/>
<path d="M4385 684 c-9 -9 -14 -23 -11 -31 3 -8 6 -16 6 -18 0 -3 9 -9 20 -15
16 -9 22 -6 34 18 11 22 12 31 1 45 -15 21 -29 22 -50 1z"/>
<path d="M4763 693 c-21 -8 -15 -43 10 -52 29 -12 52 9 42 38 -6 20 -25 25
-52 14z"/>
<path d="M6537 693 c-12 -11 -8 -23 8 -23 8 0 15 7 15 15 0 16 -12 20 -23 8z"/>
<path d="M4506 677 c-15 -11 -17 -17 -7 -35 14 -26 47 -29 60 -4 14 26 14 34
-1 43 -18 12 -31 11 -52 -4z"/>
<path d="M4630 669 c-15 -26 -6 -49 18 -49 20 0 42 37 35 58 -7 19 -41 14 -53
-9z"/>
<path d="M3525 670 c-8 -13 13 -50 28 -50 29 1 40 22 24 48 -10 14 -43 16 -52
2z"/>
<path d="M5385 664 c-14 -15 -15 -19 -2 -31 19 -19 60 0 55 25 -4 23 -32 26
-53 6z"/>
<path d="M3030 660 c-10 -6 -11 -13 -5 -19 6 -6 16 -7 25 -1 10 6 11 13 5 19
-6 6 -16 7 -25 1z"/>
<path d="M3649 668 c-17 -40 18 -82 47 -57 24 20 13 54 -18 57 -16 2 -29 2
-29 0z"/>
<path d="M5259 629 c-16 -16 -18 -23 -8 -35 24 -29 71 -9 62 26 -7 28 -31 32
-54 9z"/>
<path d="M5793 643 c-18 -7 -16 -42 3 -50 8 -3 23 1 31 10 13 13 14 19 3 31
-13 17 -17 18 -37 9z"/>
<path d="M2451 631 c-16 -10 -6 -31 15 -31 16 0 18 9 6 27 -4 7 -13 9 -21 4z"/>
<path d="M3780 625 c-26 -31 18 -71 47 -42 19 19 8 57 -16 57 -10 0 -24 -7
-31 -15z"/>
<path d="M5629 619 c-9 -17 -8 -23 2 -30 21 -13 36 -11 43 7 8 22 8 22 -14 34
-16 8 -21 6 -31 -11z"/>
<path d="M2730 623 c0 -16 16 -31 35 -35 14 -2 21 3 23 20 3 19 -1 22 -27 22
-17 0 -31 -3 -31 -7z"/>
<path d="M5110 614 c-11 -13 -10 -18 7 -36 17 -16 24 -18 41 -9 20 11 23 25 9
49 -11 17 -42 15 -57 -4z"/>
<path d="M6695 620 c3 -5 8 -10 11 -10 2 0 4 5 4 10 0 6 -5 10 -11 10 -5 0 -7
-4 -4 -10z"/>
<path d="M3181 607 c-9 -11 -8 -17 3 -26 18 -15 48 -3 44 18 -4 21 -32 26 -47
8z"/>
<path d="M4983 608 c-14 -24 -11 -38 9 -49 27 -14 50 7 42 39 -7 24 -38 30
-51 10z"/>
<path d="M6377 614 c-4 -4 -4 -10 -1 -15 6 -10 34 0 34 12 0 10 -24 12 -33 3z"/>
<path d="M3925 589 c-13 -41 44 -63 59 -23 9 23 -5 44 -29 44 -15 0 -26 -8
-30 -21z"/>
<path d="M2310 590 c0 -5 4 -10 9 -10 6 0 13 5 16 10 3 6 -1 10 -9 10 -9 0
-16 -4 -16 -10z"/>
<path d="M4184 574 c-9 -35 14 -50 39 -26 21 22 13 52 -14 52 -12 0 -21 -10
-25 -26z"/>
<path d="M2896 577 c-16 -12 -16 -14 3 -31 20 -19 41 -15 41 8 0 24 -25 37
-44 23z"/>
<path d="M3306 581 c-4 -5 -3 -16 0 -25 5 -12 10 -13 25 -5 10 5 19 16 19 24
0 16 -35 21 -44 6z"/>
<path d="M3443 561 c-10 -16 -10 -23 3 -36 20 -20 46 -2 42 29 -4 28 -30 31
-45 7z"/>
<path d="M4320 562 c-33 -27 -5 -71 35 -56 19 8 20 60 0 67 -7 3 -24 -2 -35
-11z"/>
<path d="M4495 557 c-11 -16 -12 -24 -3 -34 19 -23 53 -12 56 18 4 36 -32 46
-53 16z"/>
<path d="M4735 563 c-14 -14 -14 -16 2 -28 22 -16 43 -9 43 15 0 25 -26 32
-45 13z"/>
<path d="M5945 571 c-9 -16 3 -31 26 -31 14 0 19 6 17 17 -4 20 -33 29 -43 14z"/>
<path d="M4870 555 c-16 -19 0 -46 24 -43 19 3 22 12 17 46 -2 13 -30 10 -41
-3z"/>
<path d="M5454 555 c-3 -8 -3 -19 1 -25 7 -12 35 -14 36 -2 0 4 2 15 4 25 4
21 -33 24 -41 2z"/>
<path d="M4049 558 c-9 -31 -6 -49 10 -57 23 -13 41 4 41 36 0 18 -6 23 -25
23 -14 0 -25 -1 -26 -2z"/>
<path d="M4585 539 c-13 -21 4 -55 29 -57 28 -2 41 21 26 49 -11 20 -45 26
-55 8z"/>
<path d="M5324 535 c-8 -19 3 -35 25 -35 24 0 30 8 24 31 -6 22 -41 26 -49 4z"/>
<path d="M3050 525 c0 -8 7 -15 15 -15 9 0 12 6 9 15 -4 8 -10 15 -15 15 -5 0
-9 -7 -9 -15z"/>
<path d="M3582 524 c2 -11 11 -20 22 -22 13 -3 17 1 14 14 -2 11 -11 20 -22
22 -13 3 -17 -1 -14 -14z"/>
<path d="M5227 515 c-22 -16 -22 -31 0 -44 25 -13 53 4 46 28 -7 26 -25 32
-46 16z"/>
<path d="M5741 500 c-19 -11 -6 -41 14 -34 16 6 20 29 7 38 -4 2 -14 1 -21 -4z"/>
<path d="M6116 501 c-4 -5 -2 -12 3 -15 5 -4 12 -2 15 3 4 5 2 12 -3 15 -5 4
-12 2 -15 -3z"/>
<path d="M6257 494 c-13 -13 -7 -24 14 -24 11 0 19 5 17 12 -5 14 -22 21 -31
12z"/>
<path d="M3195 469 c-4 -5 1 -19 11 -30 13 -14 20 -16 31 -8 18 15 17 35 -3
43 -22 9 -32 7 -39 -5z"/>
<path d="M3718 463 c-23 -6 -23 -30 0 -42 20 -11 38 -3 37 16 0 18 -18 30 -37
26z"/>
<path d="M4791 461 c-18 -11 2 -50 25 -47 22 3 35 28 22 43 -12 15 -27 16 -47
4z"/>
<path d="M4112 448 c-14 -14 2 -48 23 -48 21 0 37 34 23 48 -7 7 -17 12 -23
12 -6 0 -16 -5 -23 -12z"/>
<path d="M5091 447 c-15 -18 9 -50 34 -46 25 5 29 23 10 43 -20 19 -29 20 -44
3z"/>
<path d="M3857 444 c-9 -9 4 -34 18 -34 11 0 25 20 25 36 0 6 -36 5 -43 -2z"/>
<path d="M4291 427 c-16 -16 7 -41 25 -26 8 6 14 15 14 19 0 14 -27 19 -39 7z"/>
<path d="M4646 431 c-10 -16 5 -42 23 -39 21 4 21 42 -1 46 -9 2 -19 -1 -22
-7z"/>
<path d="M2955 420 c-3 -5 1 -10 10 -10 9 0 13 5 10 10 -3 6 -8 10 -10 10 -2
0 -7 -4 -10 -10z"/>
<path d="M3355 421 c-7 -12 12 -24 25 -16 11 7 4 25 -10 25 -5 0 -11 -4 -15
-9z"/>
<path d="M4542 421 c-21 -13 -10 -46 16 -49 20 -3 23 0 20 24 -3 30 -16 38
-36 25z"/>
<path d="M4943 423 c-18 -7 -16 -30 3 -37 21 -8 45 11 37 30 -5 14 -18 17 -40
7z"/>
<path d="M3526 398 c-17 -9 -17 -11 0 -29 28 -31 62 -21 48 14 -8 21 -27 27
-48 15z"/>
<path d="M4390 385 c0 -8 7 -15 15 -15 8 0 15 7 15 15 0 8 -7 15 -15 15 -8 0
-15 -7 -15 -15z"/>
<path d="M2765 380 c3 -5 8 -10 11 -10 2 0 4 5 4 10 0 6 -5 10 -11 10 -5 0 -7
-4 -4 -10z"/>
<path d="M3195 360 c-4 -6 -3 -16 3 -22 6 -6 12 -6 17 2 4 6 3 16 -3 22 -6 6
-12 6 -17 -2z"/>
<path d="M5482 361 c4 -13 18 -16 19 -4 0 4 -5 9 -11 12 -7 2 -11 -2 -8 -8z"/>
<path d="M5287 339 c-9 -6 -17 -14 -17 -19 0 -16 37 -11 43 5 8 19 -4 26 -26
14z"/>
<path d="M3647 334 c-11 -11 3 -24 24 -24 12 0 19 5 17 13 -5 14 -31 21 -41
11z"/>
<path d="M3992 331 c-10 -6 -9 -11 3 -21 11 -9 19 -10 26 -3 13 13 -12 35 -29
24z"/>
<path d="M3414 319 c-6 -11 13 -39 27 -39 5 0 9 9 9 19 0 21 -26 36 -36 20z"/>
<path d="M4301 321 c-13 -8 -13 -12 -1 -26 13 -16 15 -16 27 1 20 27 3 43 -26
25z"/>
<path d="M4608 319 c-24 -13 -11 -39 19 -39 19 0 24 4 21 22 -4 25 -17 31 -40
17z"/>
<path d="M4152 307 c-14 -17 2 -42 22 -34 20 8 20 21 2 36 -10 8 -16 8 -24 -2z"/>
<path d="M4904 299 c-8 -14 11 -33 25 -25 16 10 13 36 -3 36 -8 0 -18 -5 -22
-11z"/>
<path d="M5430 270 c0 -5 5 -10 10 -10 6 0 10 5 10 10 0 6 -4 10 -10 10 -5 0
-10 -4 -10 -10z"/>
<path d="M3235 240 c-3 -5 1 -10 10 -10 9 0 13 5 10 10 -3 6 -8 10 -10 10 -2
0 -7 -4 -10 -10z"/>
<path d="M3537 203 c-4 -3 -7 -11 -7 -17 0 -6 5 -5 12 2 6 6 9 14 7 17 -3 3
-9 2 -12 -2z"/>
<path d="M3825 200 c-8 -12 20 -24 35 -15 6 3 8 11 5 16 -8 12 -32 12 -40 -1z"/>
<path d="M4425 199 c-10 -15 1 -23 20 -15 9 3 13 10 10 16 -8 13 -22 13 -30
-1z"/>
<path d="M4114 176 c-10 -26 -1 -38 20 -23 16 12 16 14 2 26 -13 11 -17 11
-22 -3z"/>
<path d="M5176 163 c-11 -11 -7 -20 9 -20 8 0 15 4 15 8 0 11 -16 20 -24 12z"/>
<path d="M4867 129 c7 -7 15 -10 18 -7 3 3 -2 9 -12 12 -14 6 -15 5 -6 -5z"/>
</g>
</svg>
